<svg xmlns="http://www.w3.org/2000/svg" viewBox="0 0 610.4 449.6" font-family="sans-serif">
<rect width="610.4" height="449.6" fill="white"/>
<text x="40" y="24" font-size="16" font-weight="bold">一居 50㎡  （8.84m × 5.66m）</text>
<polygon points="40,379.6 193,379.6 193,40 40,40" fill="#cfe3f5" stroke="#444" stroke-width="2"/>
<text x="116.5" y="205.8" font-size="12" text-anchor="middle">卧室 ⊞</text>
<text x="116.5" y="221.8" font-size="10" text-anchor="middle" fill="#666">14.4㎡</text>
<polygon points="193,379.6 403.59999999999997,379.6 403.59999999999997,235.60000000000002 570.4,235.60000000000002 570.4,40 308.2,40 308.2,178.6 193,178.6" fill="#fde9c8" stroke="#444" stroke-width="2"/>
<text x="381.70000000000005" y="205.8" font-size="12" text-anchor="middle">客厅 ⊞</text>
<text x="381.70000000000005" y="221.8" font-size="10" text-anchor="middle" fill="#666">24.5㎡</text>
<polygon points="403.59999999999997,379.6 570.4,379.6 570.4,235.60000000000002 403.59999999999997,235.60000000000002" fill="#f9d9a6" stroke="#444" stroke-width="2"/>
<text x="486.99999999999994" y="303.6" font-size="12" text-anchor="middle">厨房</text>
<text x="486.99999999999994" y="319.6" font-size="10" text-anchor="middle" fill="#666">6.7㎡</text>
<polygon points="193,178.6 308.2,178.6 308.2,40 193,40" fill="#d4ecec" stroke="#444" stroke-width="2"/>
<text x="250.6" y="105.30000000000001" font-size="12" text-anchor="middle">卫生间</text>
<text x="250.6" y="121.30000000000001" font-size="10" text-anchor="middle" fill="#666">4.4㎡</text>
<circle cx="193" cy="279.1" r="6" fill="#c0392b"/>
<circle cx="486.99999999999994" cy="235.60000000000002" r="6" fill="#c0392b"/>
<circle cx="308.2" cy="109.30000000000001" r="6" fill="#c0392b"/>
<text x="381.70000000000005" y="395.6" font-size="12" text-anchor="middle" fill="#c0392b" font-weight="bold">▲ 入户</text>
<text x="40" y="441.6" font-size="10" fill="#888">红点=门（位置由执行器按共享墙段中点计算） ⊞=需外窗</text>
</svg>