<svg xmlns="http://www.w3.org/2000/svg" viewBox="0 0 610.4 473.6" font-family="sans-serif">
<rect width="610.4" height="473.6" fill="white"/>
<text x="40" y="24" font-size="16" font-weight="bold">一居 50㎡  （8.84m × 5.66m）</text>
<polygon points="40,403.6 193,403.6 193,64 40,64" fill="#cfe3f5" stroke="#444" stroke-width="2"/>
<text x="116.5" y="229.8" font-size="12" text-anchor="middle">卧室 ⊞</text>
<text x="116.5" y="245.8" font-size="10" text-anchor="middle" fill="#666">14.4㎡</text>
<polygon points="193,403.6 452.8,403.6 452.8,64 193,64" fill="#fde9c8" stroke="#444" stroke-width="2"/>
<text x="322.9" y="229.8" font-size="12" text-anchor="middle">客厅 ⊞</text>
<text x="322.9" y="245.8" font-size="10" text-anchor="middle" fill="#666">24.5㎡</text>
<polygon points="452.8,403.6 570.4,403.6 570.4,200.2 452.8,200.2" fill="#f9d9a6" stroke="#444" stroke-width="2"/>
<text x="511.59999999999997" y="297.9" font-size="12" text-anchor="middle">厨房</text>
<text x="511.59999999999997" y="313.9" font-size="10" text-anchor="middle" fill="#666">6.6㎡</text>
<polygon points="452.8,200.2 570.4,200.2 570.4,64 452.8,64" fill="#d4ecec" stroke="#444" stroke-width="2"/>
<text x="511.59999999999997" y="128.1" font-size="12" text-anchor="middle">卫生间</text>
<text x="511.59999999999997" y="144.1" font-size="10" text-anchor="middle" fill="#666">4.4㎡</text>
<circle cx="193" cy="233.8" r="6" fill="#c0392b"/>
<circle cx="452.8" cy="301.9" r="6" fill="#c0392b"/>
<circle cx="452.8" cy="132.1" r="6" fill="#c0392b"/>
<polygon points="316.9,417.6 328.9,417.6 322.9,407.6" fill="#c0392b"/>
<text x="322.9" y="431.6" font-size="12" text-anchor="middle" fill="#c0392b" font-weight="bold">入户</text>
<text x="40" y="465.6" font-size="10" fill="#888">红点=门（位置由执行器按共享墙段中点计算） ⊞=需外窗</text>
</svg>