<svg xmlns="http://www.w3.org/2000/svg" viewBox="0 0 521.6 721.4" font-family="sans-serif">
<rect width="521.6" height="721.4" fill="white"/>
<text x="40" y="24" font-size="16" font-weight="bold">两居 75㎡  （7.36m × 10.19m）</text>
<polygon points="40,651.4 309.40000000000003,651.4 309.40000000000003,507.4 481.6,507.4 481.6,351.99999999999994 157.6,351.99999999999994 157.6,492.99999999999994 40,492.99999999999994" fill="#fde9c8" stroke="#444" stroke-width="2"/>
<text x="260.8" y="497.7" font-size="12" text-anchor="middle">客厅 ⊞</text>
<text x="260.8" y="513.7" font-size="10" text-anchor="middle" fill="#666">25.2㎡</text>
<polygon points="309.40000000000003,651.4 481.6,651.4 481.6,507.4 309.40000000000003,507.4" fill="#f9d9a6" stroke="#444" stroke-width="2"/>
<text x="395.50000000000006" y="575.4" font-size="12" text-anchor="middle">厨房</text>
<text x="395.50000000000006" y="591.4" font-size="10" text-anchor="middle" fill="#666">6.9㎡</text>
<polygon points="40,492.99999999999994 157.6,492.99999999999994 157.6,351.99999999999994 40,351.99999999999994" fill="#d4ecec" stroke="#444" stroke-width="2"/>
<text x="98.8" y="418.49999999999994" font-size="12" text-anchor="middle">卫生间</text>
<text x="98.8" y="434.49999999999994" font-size="10" text-anchor="middle" fill="#666">4.6㎡</text>
<polygon points="40,283 295,283 295,40 40,40" fill="#cfe3f5" stroke="#444" stroke-width="2"/>
<text x="167.5" y="157.50000000000003" font-size="12" text-anchor="middle">主卧 ⊞</text>
<text x="167.5" y="173.50000000000003" font-size="10" text-anchor="middle" fill="#666">17.2㎡</text>
<polygon points="295,283 481.6,283 481.6,40 295,40" fill="#cfe3f5" stroke="#444" stroke-width="2"/>
<text x="388.29999999999995" y="157.50000000000003" font-size="12" text-anchor="middle">次卧 ⊞</text>
<text x="388.29999999999995" y="173.50000000000003" font-size="10" text-anchor="middle" fill="#666">12.6㎡</text>
<polygon points="40,351.99999999999994 481.6,351.99999999999994 481.6,283 40,283" fill="#eeeeee" stroke="#444" stroke-width="2"/>
<text x="260.8" y="313.5" font-size="12" text-anchor="middle">走廊</text>
<text x="260.8" y="329.5" font-size="10" text-anchor="middle" fill="#666">8.5㎡</text>
<circle cx="319.6" cy="351.99999999999994" r="6" fill="#c0392b"/>
<circle cx="167.5" cy="283" r="6" fill="#c0392b"/>
<circle cx="388.29999999999995" cy="283" r="6" fill="#c0392b"/>
<circle cx="395.50000000000006" cy="507.4" r="6" fill="#c0392b"/>
<circle cx="98.8" cy="351.99999999999994" r="6" fill="#c0392b"/>
<text x="260.8" y="667.4" font-size="12" text-anchor="middle" fill="#c0392b" font-weight="bold">▲ 入户</text>
<text x="40" y="713.4" font-size="10" fill="#888">红点=门（位置由执行器按共享墙段中点计算） ⊞=需外窗</text>
</svg>