<svg xmlns="http://www.w3.org/2000/svg" viewBox="0 0 788 693.2" font-family="sans-serif">
<rect width="788" height="693.2" fill="white"/>
<text x="40" y="24" font-size="16" font-weight="bold">三居 110㎡（两卫）  （11.8m × 9.32m）</text>
<polygon points="40,623.2 194.2,623.2 194.2,469.59999999999997 40,469.59999999999997" fill="#f9d9a6" stroke="#444" stroke-width="2"/>
<text x="117.1" y="542.4000000000001" font-size="12" text-anchor="middle">厨房</text>
<text x="117.1" y="558.4000000000001" font-size="10" text-anchor="middle" fill="#666">6.6㎡</text>
<polygon points="40,469.59999999999997 194.2,469.59999999999997 194.2,367.00000000000006 40,367.00000000000006" fill="#d4ecec" stroke="#444" stroke-width="2"/>
<text x="117.1" y="414.3" font-size="12" text-anchor="middle">客卫</text>
<text x="117.1" y="430.3" font-size="10" text-anchor="middle" fill="#666">4.4㎡</text>
<polygon points="194.2,623.2 748,623.2 748,367.00000000000006 194.2,367.00000000000006" fill="#fde9c8" stroke="#444" stroke-width="2"/>
<text x="471.1" y="491.1" font-size="12" text-anchor="middle">客厅 ⊞</text>
<text x="471.1" y="507.1" font-size="10" text-anchor="middle" fill="#666">39.4㎡</text>
<polygon points="40,298 262.6,298 262.6,160.60000000000002 377.2,160.60000000000002 377.2,64 40,64" fill="#cfe3f5" stroke="#444" stroke-width="2"/>
<text x="208.6" y="177" font-size="12" text-anchor="middle">主卧 ⊞</text>
<text x="208.6" y="193" font-size="10" text-anchor="middle" fill="#666">17.5㎡</text>
<polygon points="262.6,298 377.2,298 377.2,160.60000000000002 262.6,160.60000000000002" fill="#d4ecec" stroke="#444" stroke-width="2"/>
<text x="319.9" y="225.30000000000004" font-size="12" text-anchor="middle">主卫</text>
<text x="319.9" y="241.30000000000004" font-size="10" text-anchor="middle" fill="#666">4.4㎡</text>
<polygon points="377.2,298 579.4,298 579.4,64 377.2,64" fill="#cfe3f5" stroke="#444" stroke-width="2"/>
<text x="478.29999999999995" y="177" font-size="12" text-anchor="middle">次卧 ⊞</text>
<text x="478.29999999999995" y="193" font-size="10" text-anchor="middle" fill="#666">13.1㎡</text>
<polygon points="579.4,298 748,298 748,64 579.4,64" fill="#cfe3f5" stroke="#444" stroke-width="2"/>
<text x="663.6999999999999" y="177" font-size="12" text-anchor="middle">儿童房 ⊞</text>
<text x="663.6999999999999" y="193" font-size="10" text-anchor="middle" fill="#666">11.0㎡</text>
<polygon points="40,367.00000000000006 748,367.00000000000006 748,298 40,298" fill="#eeeeee" stroke="#444" stroke-width="2"/>
<text x="394" y="328.50000000000006" font-size="12" text-anchor="middle">走廊</text>
<text x="394" y="344.50000000000006" font-size="10" text-anchor="middle" fill="#666">13.6㎡</text>
<circle cx="471.1" cy="367.00000000000006" r="6" fill="#c0392b"/>
<circle cx="151.3" cy="298" r="6" fill="#c0392b"/>
<circle cx="478.29999999999995" cy="298" r="6" fill="#c0392b"/>
<circle cx="663.6999999999999" cy="298" r="6" fill="#c0392b"/>
<circle cx="194.2" cy="546.4000000000001" r="6" fill="#c0392b"/>
<circle cx="262.6" cy="229.30000000000004" r="6" fill="#c0392b"/>
<circle cx="194.2" cy="418.3" r="6" fill="#c0392b"/>
<polygon points="762,326.50000000000006 762,338.50000000000006 752,332.50000000000006" fill="#c0392b"/>
<text x="770" y="332.50000000000006" transform="rotate(90 770 332.50000000000006)" font-size="12" text-anchor="middle" fill="#c0392b" font-weight="bold">入户</text>
<text x="40" y="685.2" font-size="10" fill="#888">红点=门（位置由执行器按共享墙段中点计算） ⊞=需外窗</text>
</svg>