<svg xmlns="http://www.w3.org/2000/svg" viewBox="0 0 380 1190" font-family="sans-serif">
<rect width="380" height="1190" fill="white"/>
<text x="40" y="24" font-size="16" font-weight="bold">狭长地块两居 5×18m（case-06）  （5m × 18m）</text>
<polygon points="40,1120 340,1120 340,689.2 184.60000000000002,689.2 184.60000000000002,833.1999999999999 40,833.1999999999999" fill="#fde9c8" stroke="#444" stroke-width="2"/>
<text x="190" y="900.6" font-size="12" text-anchor="middle">客厅 ⊞</text>
<text x="190" y="916.6" font-size="10" text-anchor="middle" fill="#666">30.1㎡</text>
<polygon points="40,833.1999999999999 184.60000000000002,833.1999999999999 184.60000000000002,689.2 40,689.2" fill="#d4ecec" stroke="#444" stroke-width="2"/>
<text x="112.30000000000001" y="757.1999999999999" font-size="12" text-anchor="middle">卫生间</text>
<text x="112.30000000000001" y="773.1999999999999" font-size="10" text-anchor="middle" fill="#666">5.8㎡</text>
<polygon points="40,689.2 271,689.2 271,544.6 40,544.6" fill="#f9d9a6" stroke="#444" stroke-width="2"/>
<text x="155.5" y="612.9" font-size="12" text-anchor="middle">厨房</text>
<text x="155.5" y="628.9" font-size="10" text-anchor="middle" fill="#666">9.3㎡</text>
<polygon points="40,544.6 271,544.6 271,255.99999999999997 40,255.99999999999997" fill="#cfe3f5" stroke="#444" stroke-width="2"/>
<text x="155.5" y="396.29999999999995" font-size="12" text-anchor="middle">主卧 ⊞</text>
<text x="155.5" y="412.29999999999995" font-size="10" text-anchor="middle" fill="#666">18.5㎡</text>
<polygon points="40,255.99999999999997 271,255.99999999999997 271,40 40,40" fill="#cfe3f5" stroke="#444" stroke-width="2"/>
<text x="155.5" y="144.00000000000006" font-size="12" text-anchor="middle">次卧 ⊞</text>
<text x="155.5" y="160.00000000000006" font-size="10" text-anchor="middle" fill="#666">13.9㎡</text>
<polygon points="271,689.2 340,689.2 340,40 271,40" fill="#eeeeee" stroke="#444" stroke-width="2"/>
<text x="305.5" y="360.6" font-size="12" text-anchor="middle">走廊</text>
<text x="305.5" y="376.6" font-size="10" text-anchor="middle" fill="#666">12.4㎡</text>
<circle cx="112.30000000000001" cy="833.1999999999999" r="6" fill="#c0392b"/>
<circle cx="305.5" cy="689.2" r="6" fill="#c0392b"/>
<circle cx="271" cy="616.9" r="6" fill="#c0392b"/>
<circle cx="271" cy="400.29999999999995" r="6" fill="#c0392b"/>
<circle cx="271" cy="148.00000000000006" r="6" fill="#c0392b"/>
<text x="305.5" y="705.2" font-size="12" text-anchor="middle" fill="#c0392b" font-weight="bold">▲ 入户</text>
<text x="40" y="1182" font-size="10" fill="#888">红点=门（位置由执行器按共享墙段中点计算） ⊞=需外窗</text>
</svg>