<svg xmlns="http://www.w3.org/2000/svg" viewBox="0 0 380 1214" font-family="sans-serif">
<rect width="380" height="1214" fill="white"/>
<text x="40" y="24" font-size="16" font-weight="bold">狭长地块两居 5×18m（case-06）  （5m × 18m）</text>
<polygon points="40,1144 340,1144 340,713.2 184.60000000000002,713.2 184.60000000000002,857.1999999999999 40,857.1999999999999" fill="#fde9c8" stroke="#444" stroke-width="2"/>
<text x="190" y="924.6" font-size="12" text-anchor="middle">客厅 ⊞</text>
<text x="190" y="940.6" font-size="10" text-anchor="middle" fill="#666">30.1㎡</text>
<polygon points="40,857.1999999999999 184.60000000000002,857.1999999999999 184.60000000000002,713.2 40,713.2" fill="#d4ecec" stroke="#444" stroke-width="2"/>
<text x="112.30000000000001" y="781.1999999999999" font-size="12" text-anchor="middle">卫生间</text>
<text x="112.30000000000001" y="797.1999999999999" font-size="10" text-anchor="middle" fill="#666">5.8㎡</text>
<polygon points="40,713.2 271,713.2 271,568.6 40,568.6" fill="#f9d9a6" stroke="#444" stroke-width="2"/>
<text x="155.5" y="636.9" font-size="12" text-anchor="middle">厨房</text>
<text x="155.5" y="652.9" font-size="10" text-anchor="middle" fill="#666">9.3㎡</text>
<polygon points="40,568.6 271,568.6 271,280 40,280" fill="#cfe3f5" stroke="#444" stroke-width="2"/>
<text x="155.5" y="420.29999999999995" font-size="12" text-anchor="middle">主卧 ⊞</text>
<text x="155.5" y="436.29999999999995" font-size="10" text-anchor="middle" fill="#666">18.5㎡</text>
<polygon points="40,280 271,280 271,64 40,64" fill="#cfe3f5" stroke="#444" stroke-width="2"/>
<text x="155.5" y="168.00000000000006" font-size="12" text-anchor="middle">次卧 ⊞</text>
<text x="155.5" y="184.00000000000006" font-size="10" text-anchor="middle" fill="#666">13.9㎡</text>
<polygon points="271,713.2 340,713.2 340,64 271,64" fill="#eeeeee" stroke="#444" stroke-width="2"/>
<text x="305.5" y="384.6" font-size="12" text-anchor="middle">走廊</text>
<text x="305.5" y="400.6" font-size="10" text-anchor="middle" fill="#666">12.4㎡</text>
<circle cx="112.30000000000001" cy="857.1999999999999" r="6" fill="#c0392b"/>
<circle cx="305.5" cy="713.2" r="6" fill="#c0392b"/>
<circle cx="271" cy="640.9" r="6" fill="#c0392b"/>
<circle cx="271" cy="424.29999999999995" r="6" fill="#c0392b"/>
<circle cx="271" cy="172.00000000000006" r="6" fill="#c0392b"/>
<polygon points="299.5,50 311.5,50 305.5,60" fill="#c0392b"/>
<text x="305.5" y="44" font-size="12" text-anchor="middle" fill="#c0392b" font-weight="bold">入户</text>
<text x="40" y="1206" font-size="10" fill="#888">红点=门（位置由执行器按共享墙段中点计算） ⊞=需外窗</text>
</svg>