<svg xmlns="http://www.w3.org/2000/svg" viewBox="0 0 470 706.4" font-family="sans-serif">
<rect width="470" height="706.4" fill="white"/>
<text x="40" y="24" font-size="16" font-weight="bold">田の字 2LDK 62㎡  （6.5m × 9.54m）</text>
<polygon points="40,322.5999999999999 430,322.5999999999999 430,64 40,64" fill="#fde9c8" stroke="#444" stroke-width="2"/>
<text x="235" y="189.29999999999995" font-size="12" text-anchor="middle">LDK ⊞</text>
<text x="235" y="205.29999999999995" font-size="10" text-anchor="middle" fill="#666">28.0㎡</text>
<polygon points="40,636.4 188.20000000000002,636.4 188.20000000000002,322.5999999999999 40,322.5999999999999" fill="#cfe3f5" stroke="#444" stroke-width="2"/>
<text x="114.10000000000001" y="475.49999999999994" font-size="12" text-anchor="middle">洋室1 ⊞</text>
<text x="114.10000000000001" y="491.49999999999994" font-size="10" text-anchor="middle" fill="#666">12.9㎡</text>
<polygon points="257.20000000000005,546.4 430,546.4 430,322.5999999999999 257.20000000000005,322.5999999999999" fill="#cfe3f5" stroke="#444" stroke-width="2"/>
<text x="343.6" y="430.49999999999994" font-size="12" text-anchor="middle">洋室2 ⊞</text>
<text x="343.6" y="446.49999999999994" font-size="10" text-anchor="middle" fill="#666">10.7㎡</text>
<polygon points="257.20000000000005,636.4 430,636.4 430,546.4 257.20000000000005,546.4" fill="#d4ecec" stroke="#444" stroke-width="2"/>
<text x="343.6" y="587.4" font-size="12" text-anchor="middle">浴室</text>
<text x="343.6" y="603.4" font-size="10" text-anchor="middle" fill="#666">4.3㎡</text>
<polygon points="188.20000000000002,636.4 257.20000000000005,636.4 257.20000000000005,495.99999999999994 188.20000000000002,495.99999999999994" fill="#e8e2d4" stroke="#444" stroke-width="2"/>
<text x="222.7" y="562.1999999999999" font-size="12" text-anchor="middle">玄関</text>
<text x="222.7" y="578.1999999999999" font-size="10" text-anchor="middle" fill="#666">2.7㎡</text>
<polygon points="188.20000000000002,495.99999999999994 257.20000000000005,495.99999999999994 257.20000000000005,322.5999999999999 188.20000000000002,322.5999999999999" fill="#eeeeee" stroke="#444" stroke-width="2"/>
<text x="222.7" y="405.29999999999995" font-size="12" text-anchor="middle">走廊</text>
<text x="222.7" y="421.29999999999995" font-size="10" text-anchor="middle" fill="#666">3.3㎡</text>
<circle cx="222.7" cy="322.5999999999999" r="6" fill="#c0392b"/>
<circle cx="188.20000000000002" cy="409.29999999999995" r="6" fill="#c0392b"/>
<circle cx="257.20000000000005" cy="409.29999999999995" r="6" fill="#c0392b"/>
<circle cx="257.20000000000005" cy="591.4" r="6" fill="#c0392b"/>
<circle cx="222.7" cy="495.99999999999994" r="6" fill="#c0392b"/>
<polygon points="216.7,650.4 228.7,650.4 222.7,640.4" fill="#c0392b"/>
<text x="222.7" y="664.4" font-size="12" text-anchor="middle" fill="#c0392b" font-weight="bold">入户</text>
<text x="40" y="698.4" font-size="10" fill="#888">红点=门（位置由执行器按共享墙段中点计算） ⊞=需外窗</text>
</svg>