<svg xmlns="http://www.w3.org/2000/svg" viewBox="0 0 650 981.8" font-family="sans-serif">
<rect width="650" height="981.8" fill="white"/>
<text x="40" y="24" font-size="16" font-weight="bold">L 形三居 95㎡  （9.5m × 14.53m）</text>
<polygon points="40,911.8 610,911.8 610,764.8 509.8,764.8 509.8,644.8 179.2,644.8 179.2,788.8000000000001 40,788.8000000000001" fill="#fde9c8" stroke="#444" stroke-width="2"/>
<text x="325" y="774.3" font-size="12" text-anchor="middle">LDK ⊞</text>
<text x="325" y="790.3" font-size="10" text-anchor="middle" fill="#666">33.4㎡</text>
<polygon points="40,788.8000000000001 179.2,788.8000000000001 179.2,644.8 40,644.8" fill="#d4ecec" stroke="#444" stroke-width="2"/>
<text x="109.6" y="712.8" font-size="12" text-anchor="middle">卫生间</text>
<text x="109.6" y="728.8" font-size="10" text-anchor="middle" fill="#666">5.6㎡</text>
<polygon points="509.8,764.8 610,764.8 610,644.8 509.8,644.8" fill="#e5ddee" stroke="#444" stroke-width="2"/>
<text x="559.9" y="700.8" font-size="12" text-anchor="middle">储物间</text>
<text x="559.9" y="716.8" font-size="10" text-anchor="middle" fill="#666">3.3㎡</text>
<polygon points="40,644.8 284.8,644.8 284.8,399.40000000000003 40,399.40000000000003" fill="#cfe3f5" stroke="#444" stroke-width="2"/>
<text x="162.4" y="518.1" font-size="12" text-anchor="middle">主卧 ⊞</text>
<text x="162.4" y="534.1" font-size="10" text-anchor="middle" fill="#666">16.7㎡</text>
<polygon points="40,399.40000000000003 284.8,399.40000000000003 284.8,203.19999999999993 40,203.19999999999993" fill="#cfe3f5" stroke="#444" stroke-width="2"/>
<text x="162.4" y="297.2999999999999" font-size="12" text-anchor="middle">次卧 ⊞</text>
<text x="162.4" y="313.2999999999999" font-size="10" text-anchor="middle" fill="#666">13.3㎡</text>
<polygon points="40,203.19999999999993 284.8,203.19999999999993 284.8,40 40,40" fill="#cfe3f5" stroke="#444" stroke-width="2"/>
<text x="162.4" y="117.59999999999997" font-size="12" text-anchor="middle">客卧 ⊞</text>
<text x="162.4" y="133.59999999999997" font-size="10" text-anchor="middle" fill="#666">11.1㎡</text>
<polygon points="284.8,644.8 353.8,644.8 353.8,40 284.8,40" fill="#eeeeee" stroke="#444" stroke-width="2"/>
<text x="319.3" y="338.4" font-size="12" text-anchor="middle">走廊</text>
<text x="319.3" y="354.4" font-size="10" text-anchor="middle" fill="#666">11.6㎡</text>
<circle cx="179.2" cy="716.8" r="6" fill="#c0392b"/>
<circle cx="509.8" cy="704.8" r="6" fill="#c0392b"/>
<circle cx="319.3" cy="644.8" r="6" fill="#c0392b"/>
<circle cx="284.8" cy="522.1" r="6" fill="#c0392b"/>
<circle cx="284.8" cy="301.2999999999999" r="6" fill="#c0392b"/>
<circle cx="284.8" cy="121.59999999999997" r="6" fill="#c0392b"/>
<text x="319.3" y="660.8" font-size="12" text-anchor="middle" fill="#c0392b" font-weight="bold">▲ 入户</text>
<text x="40" y="973.8" font-size="10" fill="#888">红点=门（位置由执行器按共享墙段中点计算） ⊞=需外窗</text>
</svg>