<svg xmlns="http://www.w3.org/2000/svg" viewBox="0 0 650 1005.8" font-family="sans-serif">
<rect width="650" height="1005.8" fill="white"/>
<text x="40" y="24" font-size="16" font-weight="bold">L 形三居 95㎡  （9.5m × 14.53m）</text>
<polygon points="40,935.8 610,935.8 610,788.8 509.8,788.8 509.8,668.8 179.2,668.8 179.2,812.8000000000001 40,812.8000000000001" fill="#fde9c8" stroke="#444" stroke-width="2"/>
<text x="325" y="798.3" font-size="12" text-anchor="middle">LDK ⊞</text>
<text x="325" y="814.3" font-size="10" text-anchor="middle" fill="#666">33.4㎡</text>
<polygon points="40,812.8000000000001 179.2,812.8000000000001 179.2,668.8 40,668.8" fill="#d4ecec" stroke="#444" stroke-width="2"/>
<text x="109.6" y="736.8" font-size="12" text-anchor="middle">卫生间</text>
<text x="109.6" y="752.8" font-size="10" text-anchor="middle" fill="#666">5.6㎡</text>
<polygon points="509.8,788.8 610,788.8 610,668.8 509.8,668.8" fill="#e5ddee" stroke="#444" stroke-width="2"/>
<text x="559.9" y="724.8" font-size="12" text-anchor="middle">储物间</text>
<text x="559.9" y="740.8" font-size="10" text-anchor="middle" fill="#666">3.3㎡</text>
<polygon points="40,668.8 284.8,668.8 284.8,423.40000000000003 40,423.40000000000003" fill="#cfe3f5" stroke="#444" stroke-width="2"/>
<text x="162.4" y="542.1" font-size="12" text-anchor="middle">主卧 ⊞</text>
<text x="162.4" y="558.1" font-size="10" text-anchor="middle" fill="#666">16.7㎡</text>
<polygon points="40,423.40000000000003 284.8,423.40000000000003 284.8,227.19999999999993 40,227.19999999999993" fill="#cfe3f5" stroke="#444" stroke-width="2"/>
<text x="162.4" y="321.2999999999999" font-size="12" text-anchor="middle">次卧 ⊞</text>
<text x="162.4" y="337.2999999999999" font-size="10" text-anchor="middle" fill="#666">13.3㎡</text>
<polygon points="40,227.19999999999993 284.8,227.19999999999993 284.8,64 40,64" fill="#cfe3f5" stroke="#444" stroke-width="2"/>
<text x="162.4" y="141.59999999999997" font-size="12" text-anchor="middle">客卧 ⊞</text>
<text x="162.4" y="157.59999999999997" font-size="10" text-anchor="middle" fill="#666">11.1㎡</text>
<polygon points="284.8,668.8 353.8,668.8 353.8,64 284.8,64" fill="#eeeeee" stroke="#444" stroke-width="2"/>
<text x="319.3" y="362.4" font-size="12" text-anchor="middle">走廊</text>
<text x="319.3" y="378.4" font-size="10" text-anchor="middle" fill="#666">11.6㎡</text>
<circle cx="179.2" cy="740.8" r="6" fill="#c0392b"/>
<circle cx="509.8" cy="728.8" r="6" fill="#c0392b"/>
<circle cx="319.3" cy="668.8" r="6" fill="#c0392b"/>
<circle cx="284.8" cy="546.1" r="6" fill="#c0392b"/>
<circle cx="284.8" cy="325.2999999999999" r="6" fill="#c0392b"/>
<circle cx="284.8" cy="145.59999999999997" r="6" fill="#c0392b"/>
<polygon points="313.3,50 325.3,50 319.3,60" fill="#c0392b"/>
<text x="319.3" y="44" font-size="12" text-anchor="middle" fill="#c0392b" font-weight="bold">入户</text>
<text x="40" y="997.8" font-size="10" fill="#888">红点=门（位置由执行器按共享墙段中点计算） ⊞=需外窗</text>
</svg>