# Blender 4.4.1
# www.blender.org
o Icosphere
v 0.041858 -0.978633 0.128824
v -0.109585 -0.978633 0.079618
v 0.923163 0.175849 -0.293984
v 0.873592 -0.083717 -0.446551
v 0.873960 0.092132 -0.440706
v 0.780548 0.184265 -0.567098
v 0.785625 -0.167434 -0.570785
v 0.694654 -0.083717 -0.692838
v 0.689208 0.092132 -0.694996
v 0.564871 0.175850 -0.787131
v 0.005672 0.175850 -0.968826
v -0.154744 -0.083717 -0.968826
v -0.149072 0.092132 -0.967371
v -0.298143 0.184265 -0.917587
v -0.300079 -0.167435 -0.923556
v -0.444270 -0.083718 -0.874754
v -0.448006 0.092132 -0.870241
v -0.574053 0.175850 -0.780460
v -0.919656 0.175849 -0.304776
v -0.969228 -0.083716 -0.152210
v -0.966090 0.092132 -0.157157
v -0.964809 0.184264 -0.000000
v -0.971084 -0.167433 0.000000
v -0.969228 -0.083716 0.152210
v -0.966090 0.092132 0.157157
v -0.919656 0.175849 0.304776
v -0.574053 0.175850 0.780460
v -0.444270 -0.083718 0.874754
v -0.448006 0.092132 0.870241
v -0.298144 0.184264 0.917587
v -0.300080 -0.167435 0.923555
v -0.154744 -0.083717 0.968826
v -0.149072 0.092132 0.967371
v 0.005672 0.175849 0.968826
v 0.564871 0.175849 0.787131
v 0.694654 -0.083718 0.692838
v 0.689208 0.092131 0.694997
v 0.780548 0.184263 0.567099
v 0.785625 -0.167435 0.570785
v 0.873591 -0.083718 0.446551
v 0.873960 0.092131 0.440706
v 0.923163 0.175848 0.293985
v 0.444270 0.083717 -0.874754
v 0.574053 -0.175850 -0.780460
v 0.300080 0.167435 -0.923555
v 0.154744 0.083717 -0.968826
v 0.448006 -0.092133 -0.870241
v 0.298144 -0.184265 -0.917587
v 0.149072 -0.092133 -0.967370
v -0.005672 -0.175850 -0.968826
v -0.694654 0.083717 -0.692838
v -0.564870 -0.175850 -0.787132
v -0.785625 0.167434 -0.570785
v -0.873591 0.083717 -0.446551
v -0.689208 -0.092132 -0.694997
v -0.780547 -0.184265 -0.567099
v -0.873960 -0.092132 -0.440707
v -0.923162 -0.175849 -0.293985
v -0.873591 0.083717 0.446551
v -0.923162 -0.175849 0.293985
v -0.785625 0.167434 0.570785
v -0.694654 0.083717 0.692838
v -0.873960 -0.092132 0.440707
v -0.780547 -0.184265 0.567099
v -0.689208 -0.092132 0.694997
v -0.564870 -0.175850 0.787132
v 0.154744 0.083717 0.968826
v -0.005672 -0.175850 0.968826
v 0.300080 0.167435 0.923555
v 0.444270 0.083717 0.874754
v 0.149072 -0.092133 0.967370
v 0.298144 -0.184265 0.917587
v 0.448006 -0.092133 0.870240
v 0.574053 -0.175850 0.780460
v 0.969228 0.083716 0.152210
v 0.919656 -0.175849 0.304776
v 0.971084 0.167433 -0.000000
v 0.969228 0.083716 -0.152210
v 0.966090 -0.092132 0.157157
v 0.964809 -0.184264 0.000000
v 0.966090 -0.092132 -0.157157
v 0.919656 -0.175849 -0.304776
v 0.087924 -0.943443 0.270597
v 0.041858 -0.978633 0.128824
v 0.923163 0.175849 -0.293984
v 0.923163 0.175849 -0.293984
v 0.873592 -0.083717 -0.446551
v 0.873592 -0.083717 -0.446551
v 0.873960 0.092132 -0.440706
v 0.873960 0.092132 -0.440706
v 0.780548 0.184265 -0.567098
v 0.780548 0.184265 -0.567098
v 0.785625 -0.167434 -0.570785
v 0.785625 -0.167434 -0.570785
v 0.694654 -0.083717 -0.692838
v 0.694654 -0.083717 -0.692838
v 0.689208 0.092132 -0.694996
v 0.689208 0.092132 -0.694996
v 0.564871 0.175850 -0.787131
v 0.564871 0.175850 -0.787131
v 0.005672 0.175850 -0.968826
v -0.154744 -0.083717 -0.968826
v -0.154744 -0.083717 -0.968826
v -0.149072 0.092132 -0.967371
v -0.149072 0.092132 -0.967371
v -0.298143 0.184265 -0.917587
v -0.298143 0.184265 -0.917587
v -0.300079 -0.167435 -0.923556
v -0.300079 -0.167435 -0.923556
v -0.444270 -0.083718 -0.874754
v -0.444270 -0.083718 -0.874754
v -0.448006 0.092132 -0.870241
v -0.448006 0.092132 -0.870241
v -0.574053 0.175850 -0.780460
v -0.574053 0.175850 -0.780460
v -0.919656 0.175849 -0.304776
v -0.919656 0.175849 -0.304776
v -0.969228 -0.083716 -0.152210
v -0.969228 -0.083716 -0.152210
v -0.966090 0.092132 -0.157157
v -0.966090 0.092132 -0.157157
v -0.964809 0.184264 -0.000000
v -0.964809 0.184264 -0.000000
v -0.971084 -0.167433 0.000000
v -0.971084 -0.167433 0.000000
v -0.969228 -0.083716 0.152210
v -0.969228 -0.083716 0.152210
v -0.966090 0.092132 0.157157
v -0.966090 0.092132 0.157157
v -0.919656 0.175849 0.304776
v -0.919656 0.175849 0.304776
v -0.574053 0.175850 0.780460
v -0.574053 0.175850 0.780460
v -0.444270 -0.083718 0.874754
v -0.444270 -0.083718 0.874754
v -0.448006 0.092132 0.870241
v -0.448006 0.092132 0.870241
v -0.298144 0.184264 0.917587
v -0.298144 0.184264 0.917587
v -0.300080 -0.167435 0.923555
v -0.300080 -0.167435 0.923555
v -0.154744 -0.083717 0.968826
v -0.154744 -0.083717 0.968826
v -0.149072 0.092132 0.967371
v -0.149072 0.092132 0.967371
v 0.005672 0.175849 0.968826
v 0.005672 0.175849 0.968826
v 0.564871 0.175849 0.787131
v 0.564871 0.175849 0.787131
v 0.694654 -0.083718 0.692838
v 0.694654 -0.083718 0.692838
v 0.689208 0.092131 0.694997
v 0.689208 0.092131 0.694997
v 0.780548 0.184263 0.567099
v 0.780548 0.184263 0.567099
v 0.785625 -0.167435 0.570785
v 0.785625 -0.167435 0.570785
v 0.873591 -0.083718 0.446551
v 0.873591 -0.083718 0.446551
v 0.873960 0.092131 0.440706
v 0.873960 0.092131 0.440706
v 0.923163 0.175848 0.293985
v 0.923163 0.175848 0.293985
v 0.444270 0.083717 -0.874754
v 0.444270 0.083717 -0.874754
v 0.574053 -0.175850 -0.780460
v 0.574053 -0.175850 -0.780460
v 0.300080 0.167435 -0.923555
v 0.300080 0.167435 -0.923555
v 0.154744 0.083717 -0.968826
v 0.154744 0.083717 -0.968826
v 0.448006 -0.092133 -0.870241
v 0.448006 -0.092133 -0.870241
v 0.298144 -0.184265 -0.917587
v 0.298144 -0.184265 -0.917587
v 0.149072 -0.092133 -0.967370
v 0.149072 -0.092133 -0.967370
v -0.005672 -0.175850 -0.968826
v -0.005672 -0.175850 -0.968826
v -0.694654 0.083717 -0.692838
v -0.694654 0.083717 -0.692838
v -0.564870 -0.175850 -0.787132
v -0.564870 -0.175850 -0.787132
v -0.785625 0.167434 -0.570785
v -0.785625 0.167434 -0.570785
v -0.873591 0.083717 -0.446551
v -0.873591 0.083717 -0.446551
v -0.689208 -0.092132 -0.694997
v -0.689208 -0.092132 -0.694997
v -0.780547 -0.184265 -0.567099
v -0.780547 -0.184265 -0.567099
v -0.873960 -0.092132 -0.440707
v -0.873960 -0.092132 -0.440707
v -0.923162 -0.175849 -0.293985
v -0.923162 -0.175849 -0.293985
v -0.873591 0.083717 0.446551
v -0.873591 0.083717 0.446551
v -0.923162 -0.175849 0.293985
v -0.923162 -0.175849 0.293985
v -0.785625 0.167434 0.570785
v -0.785625 0.167434 0.570785
v -0.694654 0.083717 0.692838
v -0.694654 0.083717 0.692838
v -0.873960 -0.092132 0.440707
v -0.873960 -0.092132 0.440707
v -0.780547 -0.184265 0.567099
v -0.780547 -0.184265 0.567099
v -0.689208 -0.092132 0.694997
v -0.689208 -0.092132 0.694997
v -0.564870 -0.175850 0.787132
v -0.564870 -0.175850 0.787132
v 0.154744 0.083717 0.968826
v 0.154744 0.083717 0.968826
v -0.005672 -0.175850 0.968826
v -0.005672 -0.175850 0.968826
v 0.300080 0.167435 0.923555
v 0.300080 0.167435 0.923555
v 0.444270 0.083717 0.874754
v 0.444270 0.083717 0.874754
v 0.149072 -0.092133 0.967370
v 0.149072 -0.092133 0.967370
v 0.298144 -0.184265 0.917587
v 0.298144 -0.184265 0.917587
v 0.448006 -0.092133 0.870240
v 0.448006 -0.092133 0.870240
v 0.574053 -0.175850 0.780460
v 0.574053 -0.175850 0.780460
v 0.969228 0.083716 0.152210
v 0.969228 0.083716 0.152210
v 0.919656 -0.175849 0.304776
v 0.919656 -0.175849 0.304776
v 0.971084 0.167433 -0.000000
v 0.971084 0.167433 -0.000000
v 0.969228 0.083716 -0.152210
v 0.969228 0.083716 -0.152210
v 0.966090 -0.092132 0.157157
v 0.966090 -0.092132 0.157157
v 0.964809 -0.184264 0.000000
v 0.964809 -0.184264 0.000000
v 0.966090 -0.092132 -0.157157
v 0.966090 -0.092132 -0.157157
v 0.919656 -0.175849 -0.304776
v 0.919656 -0.175849 -0.304776
v 0.087924 -0.943443 0.270597
vn 0.9511 -0.0000 0.3090
vn 0.9511 -0.0000 -0.3090
vn -0.0000 -0.0000 1.0000
vn 0.5878 -0.0000 0.8090
vn -0.9511 -0.0000 0.3090
vn -0.5878 -0.0000 0.8090
vn -0.5878 -0.0000 -0.8090
vn -0.9511 -0.0000 -0.3090
vn 0.5878 -0.0000 -0.8090
vn -0.0000 -0.0000 -1.0000
vn 0.8089 0.0178 -0.5877
vn -0.3090 0.0178 -0.9509
vn -0.9998 0.0178 -0.0000
vn -0.3090 0.0178 0.9509
vn 0.8089 0.0178 0.5877
vn 0.3090 -0.0178 -0.9509
vn -0.8089 -0.0178 -0.5877
vn -0.8089 -0.0178 0.5877
vn 0.3090 -0.0178 0.9509
vn 0.9998 -0.0178 -0.0000
vt 0.500000 0.993725
vt 0.927579 0.746863
vt 0.927579 0.253137
vt 0.500000 0.006275
vt 0.072421 0.253137
vt 0.072421 0.746863
s 1
f 158/1/1 230/2/1 236/3/1 229/4/1 163/5/1 160/6/1
f 85/1/2 234/2/2 240/3/2 243/4/2 88/5/2 89/6/2
f 142/1/3 214/2/3 220/3/3 213/4/3 147/5/3 144/6/3
f 148/1/4 218/2/4 224/3/4 227/4/4 151/5/4 152/6/4
f 126/1/5 198/2/5 204/3/5 197/4/5 131/5/5 128/6/5
f 132/1/6 202/2/6 208/3/6 211/4/6 135/5/6 136/6/6
f 110/1/7 182/2/7 188/3/7 181/4/7 115/5/7 112/6/7
f 116/1/8 186/2/8 192/3/8 195/4/8 119/5/8 120/6/8
f 95/1/9 166/2/9 172/3/9 165/4/9 100/5/9 97/6/9
f 101/1/10 170/2/10 176/3/10 179/4/10 103/5/10 104/6/10
f 4/1/11 7/2/11 8/3/11 98/4/11 92/5/11 5/6/11
f 12/1/12 15/2/12 16/3/12 113/4/12 107/5/12 13/6/12
f 20/1/13 23/2/13 24/3/13 129/4/13 123/5/13 21/6/13
f 28/1/14 31/2/14 32/3/14 145/4/14 139/5/14 29/6/14
f 36/1/15 39/2/15 40/3/15 161/4/15 155/5/15 37/6/15
f 43/1/16 173/2/16 174/3/16 177/4/16 46/5/16 45/6/16
f 51/1/17 189/2/17 190/3/17 193/4/17 54/5/17 53/6/17
f 59/1/18 205/2/18 206/3/18 209/4/18 62/5/18 61/6/18
f 67/1/19 221/2/19 222/3/19 225/4/19 70/5/19 69/6/19
f 75/1/20 237/2/20 238/3/20 241/4/20 78/5/20 77/6/20
l 162 228
l 228 232
l 159 231
l 156 159
l 87 93
l 87 242
l 233 235
l 86 235
l 146 212
l 212 216
l 143 215
l 140 143
l 150 157
l 150 226
l 217 219
l 149 219
l 130 196
l 196 200
l 127 199
l 124 127
l 134 141
l 134 210
l 201 203
l 133 203
l 114 180
l 180 184
l 111 183
l 108 111
l 118 125
l 118 194
l 185 187
l 117 187
l 99 164
l 164 168
l 96 167
l 94 96
l 102 109
l 102 178
l 169 171
l 3 90
l 90 91
l 6 9
l 9 10
l 11 105
l 105 106
l 14 17
l 17 18
l 19 121
l 121 122
l 22 25
l 25 26
l 27 137
l 137 138
l 30 33
l 33 34
l 35 153
l 153 154
l 38 41
l 41 42
l 44 47
l 47 175
l 48 49
l 49 50
l 52 55
l 55 191
l 56 57
l 57 58
l 60 63
l 63 207
l 64 65
l 65 66
l 68 71
l 71 223
l 72 73
l 73 74
l 76 79
l 79 239
l 80 81
l 81 82
