<svg xmlns="http://www.w3.org/2000/svg" viewBox="0 0 350 854" font-family="sans-serif">
<rect width="350" height="854" fill="white"/>
<text x="40" y="24" font-size="16" font-weight="bold">1LDK+納戸 54㎡ うなぎの寝床（町屋型狭长） [参照]  （4.5m × 12m）</text>
<polygon points="238,784 310,784 310,694 238,694" fill="#e8e2d4" stroke="#444" stroke-width="2"/>
<text x="274" y="735" font-size="12" text-anchor="middle">玄関</text>
<text x="274" y="751" font-size="10" text-anchor="middle" fill="#666">1.8㎡</text>
<polygon points="238,694 310,694 310,334 238,334" fill="#eeeeee" stroke="#444" stroke-width="2"/>
<text x="274" y="510" font-size="12" text-anchor="middle">廊下</text>
<text x="274" y="526" font-size="10" text-anchor="middle" fill="#666">7.2㎡</text>
<polygon points="40,784 238,784 238,580 40,580" fill="#cfe3f5" stroke="#444" stroke-width="2"/>
<text x="139" y="678" font-size="12" text-anchor="middle">洋室 ⊞</text>
<text x="139" y="694" font-size="10" text-anchor="middle" fill="#666">11.2㎡</text>
<polygon points="136,580 238,580 238,460 136,460" fill="#d4ecec" stroke="#444" stroke-width="2"/>
<text x="187" y="516" font-size="12" text-anchor="middle">洗面脱衣室</text>
<text x="187" y="532" font-size="10" text-anchor="middle" fill="#666">3.4㎡</text>
<polygon points="40,580 136,580 136,460 40,460" fill="#d4ecec" stroke="#444" stroke-width="2"/>
<text x="88" y="516" font-size="12" text-anchor="middle">浴室</text>
<text x="88" y="532" font-size="10" text-anchor="middle" fill="#666">3.2㎡</text>
<polygon points="172,460 238,460 238,334 172,334" fill="#d4ecec" stroke="#444" stroke-width="2"/>
<text x="205" y="393" font-size="12" text-anchor="middle">トイレ</text>
<text x="205" y="409" font-size="10" text-anchor="middle" fill="#666">2.3㎡</text>
<polygon points="40,460 172,460 172,334 40,334" fill="#e5ddee" stroke="#444" stroke-width="2"/>
<text x="106" y="393" font-size="12" text-anchor="middle">納戸</text>
<text x="106" y="409" font-size="10" text-anchor="middle" fill="#666">4.6㎡</text>
<polygon points="40,334 310,334 310,64 40,64" fill="#fde9c8" stroke="#444" stroke-width="2"/>
<text x="175" y="195" font-size="12" text-anchor="middle">LDK ⊞</text>
<text x="175" y="211" font-size="10" text-anchor="middle" fill="#666">20.3㎡</text>
<circle cx="274" cy="694" r="6" fill="#c0392b"/>
<circle cx="238" cy="637" r="6" fill="#c0392b"/>
<circle cx="238" cy="520" r="6" fill="#c0392b"/>
<circle cx="136" cy="520" r="6" fill="#c0392b"/>
<circle cx="238" cy="397" r="6" fill="#c0392b"/>
<circle cx="106" cy="334" r="6" fill="#c0392b"/>
<circle cx="274" cy="334" r="6" fill="#c0392b"/>
<polygon points="324,733 324,745 314,739" fill="#c0392b"/>
<text x="332" y="739" transform="rotate(90 332 739)" font-size="12" text-anchor="middle" fill="#c0392b" font-weight="bold">入户</text>
<text x="40" y="846" font-size="10" fill="#888">红点=门（位置由执行器按共享墙段中点计算） ⊞=需外窗</text>
</svg>