<svg xmlns="http://www.w3.org/2000/svg" viewBox="0 0 356 620" font-family="sans-serif">
<rect width="356" height="620" fill="white"/>
<text x="40" y="24" font-size="16" font-weight="bold">1R 37.45㎡ マンション（スタジオ13.5帖） [参照]  （4.6m × 8.1m）</text>
<polygon points="40,550 124,550 124,472 40,472" fill="#e5ddee" stroke="#444" stroke-width="2"/>
<text x="82" y="506.99999999999994" font-size="12" text-anchor="middle">収納</text>
<text x="82" y="523" font-size="10" text-anchor="middle" fill="#666">1.8㎡</text>
<polygon points="124,550 250,550 250,472 124,472" fill="#e8e2d4" stroke="#444" stroke-width="2"/>
<text x="187" y="506.99999999999994" font-size="12" text-anchor="middle">玄関</text>
<text x="187" y="523" font-size="10" text-anchor="middle" fill="#666">2.7㎡</text>
<polygon points="250,550 316,550 316,472 250,472" fill="#d4ecec" stroke="#444" stroke-width="2"/>
<text x="283" y="506.99999999999994" font-size="12" text-anchor="middle">洗面室</text>
<text x="283" y="523" font-size="10" text-anchor="middle" fill="#666">1.4㎡</text>
<polygon points="40,472 196,472 196,375.99999999999994 40,375.99999999999994" fill="#f9d9a6" stroke="#444" stroke-width="2"/>
<text x="118" y="420" font-size="12" text-anchor="middle">キッチン</text>
<text x="118" y="436" font-size="10" text-anchor="middle" fill="#666">4.2㎡</text>
<polygon points="196,472 250,472 250,375.99999999999994 196,375.99999999999994" fill="#eeeeee" stroke="#444" stroke-width="2"/>
<text x="223" y="420" font-size="12" text-anchor="middle">廊下</text>
<text x="223" y="436" font-size="10" text-anchor="middle" fill="#666">1.4㎡</text>
<polygon points="250,472 316,472 316,375.99999999999994 250,375.99999999999994" fill="#d4ecec" stroke="#444" stroke-width="2"/>
<text x="283" y="420" font-size="12" text-anchor="middle">浴室</text>
<text x="283" y="436" font-size="10" text-anchor="middle" fill="#666">1.8㎡</text>
<polygon points="40,375.99999999999994 136,375.99999999999994 136,334 40,334" fill="#e5ddee" stroke="#444" stroke-width="2"/>
<text x="88" y="351" font-size="12" text-anchor="middle">クローゼット</text>
<text x="88" y="367" font-size="10" text-anchor="middle" fill="#666">1.1㎡</text>
<polygon points="136,375.99999999999994 316,375.99999999999994 316,64 40,64 40,334 136,334" fill="#cfe3f5" stroke="#444" stroke-width="2"/>
<text x="178" y="215.99999999999997" font-size="12" text-anchor="middle">スタジオ ⊞</text>
<text x="178" y="231.99999999999997" font-size="10" text-anchor="middle" fill="#666">22.8㎡</text>
<circle cx="124" cy="510.99999999999994" r="6" fill="#c0392b"/>
<circle cx="160" cy="472" r="6" fill="#c0392b"/>
<circle cx="223" cy="472" r="6" fill="#c0392b"/>
<circle cx="250" cy="510.99999999999994" r="6" fill="#c0392b"/>
<circle cx="283" cy="472" r="6" fill="#c0392b"/>
<circle cx="196" cy="424" r="6" fill="#c0392b"/>
<circle cx="223" cy="375.99999999999994" r="6" fill="#c0392b"/>
<circle cx="166" cy="375.99999999999994" r="6" fill="#c0392b"/>
<circle cx="88" cy="334" r="6" fill="#c0392b"/>
<polygon points="181,564 193,564 187,554" fill="#c0392b"/>
<text x="187" y="578" font-size="12" text-anchor="middle" fill="#c0392b" font-weight="bold">入户</text>
<text x="40" y="612" font-size="10" fill="#888">红点=门（位置由执行器按共享墙段中点计算） ⊞=需外窗</text>
</svg>