<svg xmlns="http://www.w3.org/2000/svg" viewBox="0 0 404 482" font-family="sans-serif">
<rect width="404" height="482" fill="white"/>
<text x="40" y="24" font-size="16" font-weight="bold">1LDK 31.4㎡ マンション（DK8.4帖 + 洋室4.8帖） [参照]  （5.4m × 5.8m）</text>
<polygon points="100,412 208,412 208,328 100,328" fill="#e8e2d4" stroke="#444" stroke-width="2"/>
<text x="154" y="366" font-size="12" text-anchor="middle">玄関</text>
<text x="154" y="382" font-size="10" text-anchor="middle" fill="#666">2.5㎡</text>
<polygon points="208,412 280,412 280,328 208,328" fill="#d4ecec" stroke="#444" stroke-width="2"/>
<text x="244" y="366" font-size="12" text-anchor="middle">トイレ</text>
<text x="244" y="382" font-size="10" text-anchor="middle" fill="#666">1.7㎡</text>
<polygon points="280,412 364,412 364,274 280,274" fill="#d4ecec" stroke="#444" stroke-width="2"/>
<text x="322" y="339" font-size="12" text-anchor="middle">浴室</text>
<text x="322" y="355" font-size="10" text-anchor="middle" fill="#666">3.2㎡</text>
<polygon points="208,328 280,328 280,244 208,244" fill="#d4ecec" stroke="#444" stroke-width="2"/>
<text x="244" y="282" font-size="12" text-anchor="middle">洗面室</text>
<text x="244" y="298" font-size="10" text-anchor="middle" fill="#666">1.7㎡</text>
<polygon points="280,274 364,274 364,244 280,244" fill="#e5ddee" stroke="#444" stroke-width="2"/>
<text x="322" y="255" font-size="12" text-anchor="middle">クローゼット</text>
<text x="322" y="271" font-size="10" text-anchor="middle" fill="#666">0.7㎡</text>
<polygon points="40,412 100,412 100,328 208,328 208,64 40,64" fill="#fde9c8" stroke="#444" stroke-width="2"/>
<text x="124" y="234" font-size="12" text-anchor="middle">LDK ⊞</text>
<text x="124" y="250" font-size="10" text-anchor="middle" fill="#666">13.7㎡</text>
<polygon points="208,244 364,244 364,64 208,64" fill="#cfe3f5" stroke="#444" stroke-width="2"/>
<text x="286" y="150" font-size="12" text-anchor="middle">洋室 ⊞</text>
<text x="286" y="166" font-size="10" text-anchor="middle" fill="#666">7.8㎡</text>
<circle cx="154" cy="328" r="6" fill="#c0392b"/>
<circle cx="208" cy="286" r="6" fill="#c0392b"/>
<circle cx="244" cy="328" r="6" fill="#c0392b"/>
<circle cx="280" cy="301" r="6" fill="#c0392b"/>
<circle cx="208" cy="153.99999999999994" r="6" fill="#c0392b"/>
<circle cx="322" cy="244" r="6" fill="#c0392b"/>
<polygon points="148,426 160,426 154,416" fill="#c0392b"/>
<text x="154" y="440" font-size="12" text-anchor="middle" fill="#c0392b" font-weight="bold">入户</text>
<text x="40" y="474" font-size="10" fill="#888">红点=门（位置由执行器按共享墙段中点计算） ⊞=需外窗</text>
</svg>