<svg xmlns="http://www.w3.org/2000/svg" viewBox="0 0 464 794" font-family="sans-serif">
<rect width="464" height="794" fill="white"/>
<text x="40" y="24" font-size="16" font-weight="bold">3LDK 70.4㎡ マンション（LDK13.8帖 + 洋室4.3/4.4/5.1帖・北側水回り） [参照]  （6.4m × 11m）</text>
<polygon points="40,724 190,724 190,640 40,640" fill="#e8e2d4" stroke="#444" stroke-width="2"/>
<text x="115" y="678" font-size="12" text-anchor="middle">玄関</text>
<text x="115" y="694" font-size="10" text-anchor="middle" fill="#666">3.5㎡</text>
<polygon points="190,724 280,724 280,364 190,364" fill="#eeeeee" stroke="#444" stroke-width="2"/>
<text x="235" y="540" font-size="12" text-anchor="middle">廊下</text>
<text x="235" y="556" font-size="10" text-anchor="middle" fill="#666">9.0㎡</text>
<polygon points="40,640 190,640 190,544 40,544" fill="#d4ecec" stroke="#444" stroke-width="2"/>
<text x="115" y="588" font-size="12" text-anchor="middle">洗面室</text>
<text x="115" y="604" font-size="10" text-anchor="middle" fill="#666">4.0㎡</text>
<polygon points="40,544 190,544 190,358 40,358" fill="#cfe3f5" stroke="#444" stroke-width="2"/>
<text x="115" y="447" font-size="12" text-anchor="middle">洋室2 ⊞</text>
<text x="115" y="463" font-size="10" text-anchor="middle" fill="#666">7.8㎡</text>
<polygon points="280,724 424,724 424,664 280,664" fill="#d4ecec" stroke="#444" stroke-width="2"/>
<text x="352" y="690" font-size="12" text-anchor="middle">トイレ</text>
<text x="352" y="706" font-size="10" text-anchor="middle" fill="#666">2.4㎡</text>
<polygon points="280,664 424,664 424,568 280,568" fill="#d4ecec" stroke="#444" stroke-width="2"/>
<text x="352" y="612" font-size="12" text-anchor="middle">浴室</text>
<text x="352" y="628" font-size="10" text-anchor="middle" fill="#666">3.8㎡</text>
<polygon points="280,568 424,568 424,364 280,364" fill="#cfe3f5" stroke="#444" stroke-width="2"/>
<text x="352" y="462" font-size="12" text-anchor="middle">洋室1 ⊞</text>
<text x="352" y="478" font-size="10" text-anchor="middle" fill="#666">8.2㎡</text>
<polygon points="40,358 190,358 190,298 40,298" fill="#e5ddee" stroke="#444" stroke-width="2"/>
<text x="115" y="324" font-size="12" text-anchor="middle">収納</text>
<text x="115" y="340" font-size="10" text-anchor="middle" fill="#666">2.5㎡</text>
<polygon points="40,298 190,298 190,64 40,64" fill="#cfe3f5" stroke="#444" stroke-width="2"/>
<text x="115" y="176.99999999999994" font-size="12" text-anchor="middle">洋室3 ⊞</text>
<text x="115" y="192.99999999999994" font-size="10" text-anchor="middle" fill="#666">9.8㎡</text>
<polygon points="190,364 424,364 424,64 190,64" fill="#fde9c8" stroke="#444" stroke-width="2"/>
<text x="307" y="210" font-size="12" text-anchor="middle">LDK ⊞</text>
<text x="307" y="226" font-size="10" text-anchor="middle" fill="#666">19.5㎡</text>
<circle cx="190" cy="682" r="6" fill="#c0392b"/>
<circle cx="190" cy="592" r="6" fill="#c0392b"/>
<circle cx="190" cy="454" r="6" fill="#c0392b"/>
<circle cx="280" cy="694" r="6" fill="#c0392b"/>
<circle cx="280" cy="616" r="6" fill="#c0392b"/>
<circle cx="280" cy="466" r="6" fill="#c0392b"/>
<circle cx="235" cy="364" r="6" fill="#c0392b"/>
<circle cx="115" cy="298" r="6" fill="#c0392b"/>
<circle cx="190" cy="180.99999999999994" r="6" fill="#c0392b"/>
<polygon points="109,738 121,738 115,728" fill="#c0392b"/>
<text x="115" y="752" font-size="12" text-anchor="middle" fill="#c0392b" font-weight="bold">入户</text>
<text x="40" y="786" font-size="10" fill="#888">红点=门（位置由执行器按共享墙段中点计算） ⊞=需外窗</text>
</svg>