<svg xmlns="http://www.w3.org/2000/svg" viewBox="0 0 500 512" font-family="sans-serif">
<rect width="500" height="512" fill="white"/>
<text x="40" y="24" font-size="16" font-weight="bold">2DK 44.16㎡ マンション（DK7.5帖 + 洋室6帖×2） [参照]  （7m × 6.3m）</text>
<polygon points="278.20000000000005,151.6 340,151.6 340,64 278.20000000000005,64" fill="#e8e2d4" stroke="#444" stroke-width="2"/>
<text x="309.1" y="103.79999999999997" font-size="12" text-anchor="middle">玄関</text>
<text x="309.1" y="119.79999999999997" font-size="10" text-anchor="middle" fill="#666">1.5㎡</text>
<polygon points="278.20000000000005,247.59999999999997 340,247.59999999999997 340,151.6 278.20000000000005,151.6" fill="#eeeeee" stroke="#444" stroke-width="2"/>
<text x="309.1" y="195.6" font-size="12" text-anchor="middle">廊下</text>
<text x="309.1" y="211.6" font-size="10" text-anchor="middle" fill="#666">1.6㎡</text>
<polygon points="40,247.59999999999997 278.20000000000005,247.59999999999997 278.20000000000005,64 40,64" fill="#fde9c8" stroke="#444" stroke-width="2"/>
<text x="159.10000000000002" y="151.8" font-size="12" text-anchor="middle">DK ⊞</text>
<text x="159.10000000000002" y="167.8" font-size="10" text-anchor="middle" fill="#666">12.1㎡</text>
<polygon points="40,442 220,442 220,247.59999999999997 40,247.59999999999997" fill="#cfe3f5" stroke="#444" stroke-width="2"/>
<text x="130" y="340.79999999999995" font-size="12" text-anchor="middle">洋室1 ⊞</text>
<text x="130" y="356.79999999999995" font-size="10" text-anchor="middle" fill="#666">9.7㎡</text>
<polygon points="280,442 460,442 460,247.59999999999997 280,247.59999999999997" fill="#cfe3f5" stroke="#444" stroke-width="2"/>
<text x="370" y="340.79999999999995" font-size="12" text-anchor="middle">洋室2 ⊞</text>
<text x="370" y="356.79999999999995" font-size="10" text-anchor="middle" fill="#666">9.7㎡</text>
<polygon points="220,442 280,442 280,344.79999999999995 220,344.79999999999995" fill="#e5ddee" stroke="#444" stroke-width="2"/>
<text x="250" y="389.40000000000003" font-size="12" text-anchor="middle">クローゼット1</text>
<text x="250" y="405.40000000000003" font-size="10" text-anchor="middle" fill="#666">1.6㎡</text>
<polygon points="220,344.79999999999995 280,344.79999999999995 280,247.59999999999997 220,247.59999999999997" fill="#e5ddee" stroke="#444" stroke-width="2"/>
<text x="250" y="292.2" font-size="12" text-anchor="middle">クローゼット2</text>
<text x="250" y="308.2" font-size="10" text-anchor="middle" fill="#666">1.6㎡</text>
<polygon points="340,247.59999999999997 460,247.59999999999997 460,151.6 340,151.6" fill="#d4ecec" stroke="#444" stroke-width="2"/>
<text x="400" y="195.6" font-size="12" text-anchor="middle">浴室・洗濯機置場</text>
<text x="400" y="211.6" font-size="10" text-anchor="middle" fill="#666">3.2㎡</text>
<polygon points="340,151.6 400,151.6 400,64 340,64" fill="#d4ecec" stroke="#444" stroke-width="2"/>
<text x="370" y="103.79999999999997" font-size="12" text-anchor="middle">洗面室</text>
<text x="370" y="119.79999999999997" font-size="10" text-anchor="middle" fill="#666">1.5㎡</text>
<polygon points="400,151.6 460,151.6 460,64 400,64" fill="#d4ecec" stroke="#444" stroke-width="2"/>
<text x="430" y="103.79999999999997" font-size="12" text-anchor="middle">トイレ</text>
<text x="430" y="119.79999999999997" font-size="10" text-anchor="middle" fill="#666">1.5㎡</text>
<circle cx="309.1" cy="151.6" r="6" fill="#c0392b"/>
<circle cx="340" cy="107.79999999999997" r="6" fill="#c0392b"/>
<circle cx="400" cy="107.79999999999997" r="6" fill="#c0392b"/>
<circle cx="370" cy="151.6" r="6" fill="#c0392b"/>
<circle cx="278.20000000000005" cy="199.6" r="6" fill="#c0392b"/>
<circle cx="310" cy="247.59999999999997" r="6" fill="#c0392b"/>
<circle cx="130" cy="247.59999999999997" r="6" fill="#c0392b"/>
<circle cx="280" cy="393.40000000000003" r="6" fill="#c0392b"/>
<circle cx="220" cy="296.2" r="6" fill="#c0392b"/>
<polygon points="303.1,50 315.1,50 309.1,60" fill="#c0392b"/>
<text x="309.1" y="44" font-size="12" text-anchor="middle" fill="#c0392b" font-weight="bold">入户</text>
<text x="40" y="504" font-size="10" fill="#888">红点=门（位置由执行器按共享墙段中点计算） ⊞=需外窗</text>
</svg>