<svg xmlns="http://www.w3.org/2000/svg" viewBox="0 0 272 614" font-family="sans-serif">
<rect width="272" height="614" fill="white"/>
<text x="40" y="24" font-size="16" font-weight="bold">1K 25.6㎡ 单身公寓（縦长廊下型） [参照]  （3.2m × 8m）</text>
<polygon points="40,544 112,544 112,460 40,460" fill="#e8e2d4" stroke="#444" stroke-width="2"/>
<text x="76" y="498" font-size="12" text-anchor="middle">玄関</text>
<text x="76" y="514" font-size="10" text-anchor="middle" fill="#666">1.7㎡</text>
<polygon points="112,544 232,544 232,460 112,460" fill="#d4ecec" stroke="#444" stroke-width="2"/>
<text x="172" y="498" font-size="12" text-anchor="middle">浴室・トイレ</text>
<text x="172" y="514" font-size="10" text-anchor="middle" fill="#666">2.8㎡</text>
<polygon points="40,460 232,460 232,364 40,364" fill="#f9d9a6" stroke="#444" stroke-width="2"/>
<text x="136" y="408" font-size="12" text-anchor="middle">キッチン</text>
<text x="136" y="424" font-size="10" text-anchor="middle" fill="#666">5.1㎡</text>
<polygon points="40,364 232,364 232,64 40,64" fill="#cfe3f5" stroke="#444" stroke-width="2"/>
<text x="136" y="210" font-size="12" text-anchor="middle">洋室 ⊞</text>
<text x="136" y="226" font-size="10" text-anchor="middle" fill="#666">16.0㎡</text>
<circle cx="76" cy="460" r="6" fill="#c0392b"/>
<circle cx="172" cy="460" r="6" fill="#c0392b"/>
<circle cx="136" cy="364" r="6" fill="#c0392b"/>
<polygon points="26,496 26,508 36,502" fill="#c0392b"/>
<text x="18" y="502" transform="rotate(-90 18 502)" font-size="12" text-anchor="middle" fill="#c0392b" font-weight="bold">入户</text>
<text x="40" y="606" font-size="10" fill="#888">红点=门（位置由执行器按共享墙段中点计算） ⊞=需外窗</text>
</svg>