<svg xmlns="http://www.w3.org/2000/svg" viewBox="0 0 224 680" font-family="sans-serif">
<rect width="224" height="680" fill="white"/>
<text x="40" y="24" font-size="16" font-weight="bold">1K 21.95㎡ マンション（居室6.8帖・縦長廊下型実例） [参照]  （2.4m × 9.1m）</text>
<polygon points="40,610 184,610 184,334 40,334" fill="#cfe3f5" stroke="#444" stroke-width="2"/>
<text x="112" y="468" font-size="12" text-anchor="middle">洋室 ⊞</text>
<text x="112" y="484" font-size="10" text-anchor="middle" fill="#666">11.0㎡</text>
<polygon points="40,334 118,334 118,285.99999999999994 40,285.99999999999994" fill="#e5ddee" stroke="#444" stroke-width="2"/>
<text x="79" y="306" font-size="12" text-anchor="middle">クローゼット</text>
<text x="79" y="322" font-size="10" text-anchor="middle" fill="#666">1.0㎡</text>
<polygon points="40,285.99999999999994 118,285.99999999999994 118,189.99999999999997 40,189.99999999999997" fill="#d4ecec" stroke="#444" stroke-width="2"/>
<text x="79" y="233.99999999999997" font-size="12" text-anchor="middle">浴室</text>
<text x="79" y="249.99999999999997" font-size="10" text-anchor="middle" fill="#666">2.1㎡</text>
<polygon points="118,334 184,334 184,135.99999999999994 40,135.99999999999994 40,189.99999999999997 118,189.99999999999997" fill="#f9d9a6" stroke="#444" stroke-width="2"/>
<text x="112" y="230.99999999999997" font-size="12" text-anchor="middle">キッチン</text>
<text x="112" y="246.99999999999997" font-size="10" text-anchor="middle" fill="#666">4.8㎡</text>
<polygon points="40,135.99999999999994 118,135.99999999999994 118,64 40,64" fill="#e8e2d4" stroke="#444" stroke-width="2"/>
<text x="79" y="95.99999999999997" font-size="12" text-anchor="middle">玄関</text>
<text x="79" y="111.99999999999997" font-size="10" text-anchor="middle" fill="#666">1.6㎡</text>
<polygon points="118,135.99999999999994 184,135.99999999999994 184,64 118,64" fill="#d4ecec" stroke="#444" stroke-width="2"/>
<text x="151" y="95.99999999999997" font-size="12" text-anchor="middle">トイレ</text>
<text x="151" y="111.99999999999997" font-size="10" text-anchor="middle" fill="#666">1.3㎡</text>
<circle cx="79" cy="135.99999999999994" r="6" fill="#c0392b"/>
<circle cx="151" cy="135.99999999999994" r="6" fill="#c0392b"/>
<circle cx="118" cy="237.99999999999997" r="6" fill="#c0392b"/>
<circle cx="151" cy="334" r="6" fill="#c0392b"/>
<circle cx="79" cy="334" r="6" fill="#c0392b"/>
<polygon points="73,50 85,50 79,60" fill="#c0392b"/>
<text x="79" y="44" font-size="12" text-anchor="middle" fill="#c0392b" font-weight="bold">入户</text>
<text x="40" y="672" font-size="10" fill="#888">红点=门（位置由执行器按共享墙段中点计算） ⊞=需外窗</text>
</svg>