<svg width="318" height="56" viewBox="0 0 318 56" fill="none" xmlns="http://www.w3.org/2000/svg">
<path d="M108.984 35.6672H105.884V17.2635H110.716L116.278 28.8257L121.839 17.2635H126.649V35.6672H123.549V21.3L117.121 34.0708H115.366L108.984 21.3V35.6672Z" fill="#00D4B6"/>
<path d="M144.655 17.2635V20.1826H134.831V25.0628H143.652V27.8223H134.831V32.7481H144.952V35.6672H131.709V17.2635H144.655Z" fill="#00D4B6"/>
<path d="M151.539 31.4938L149.693 35.69H146.388L154.502 17.2863H157.807L165.922 35.69H162.617L160.77 31.4938H151.539ZM159.494 28.6204L156.143 21.0491L152.793 28.6204H159.494Z" fill="#00D4B6"/>
<path d="M174.013 19.6808C173.102 19.6808 172.372 19.8632 171.78 20.2281C171.21 20.593 170.914 21.1631 170.914 21.8929C170.914 22.6455 171.21 23.2156 171.78 23.6033C172.35 23.991 173.58 24.4242 175.472 24.8803C177.364 25.3365 178.777 25.975 179.735 26.796C180.692 27.617 181.171 28.8256 181.171 30.4448C181.171 32.0412 180.555 33.3638 179.347 34.3445C178.139 35.3479 176.544 35.8496 174.583 35.8496C171.711 35.8496 169.158 34.869 166.925 32.8849L168.862 30.536C170.731 32.1552 172.646 32.9534 174.652 32.9534C175.655 32.9534 176.452 32.7481 177.022 32.3148C177.615 31.8815 177.911 31.3114 177.911 30.6044C177.911 29.8975 177.638 29.3501 177.091 28.9397C176.544 28.552 175.586 28.1871 174.241 27.8678C172.897 27.5485 171.871 27.2521 171.164 26.9784C170.458 26.7048 169.842 26.3399 169.295 25.9066C168.201 25.0856 167.654 23.8085 167.654 22.1209C167.654 20.4106 168.269 19.1107 169.5 18.1757C170.731 17.2634 172.258 16.7845 174.082 16.7845C175.267 16.7845 176.43 16.967 177.592 17.3547C178.755 17.7424 179.757 18.2897 180.601 18.9966L178.937 21.3456C178.39 20.8439 177.66 20.4562 176.726 20.1369C175.837 19.8404 174.925 19.6808 174.013 19.6808Z" fill="#00D4B6"/>
<path d="M189.171 31.4483C190.015 32.4289 191.154 32.9306 192.59 32.9306C194.026 32.9306 195.166 32.4289 196.009 31.4483C196.853 30.4676 197.263 29.1221 197.263 27.4574V17.2635H200.363V27.5714C200.363 30.2168 199.633 32.2692 198.175 33.6831C196.716 35.1199 194.847 35.8268 192.567 35.8268C190.288 35.8268 188.419 35.1199 186.96 33.6831C185.501 32.2464 184.772 30.2168 184.772 27.5714V17.2635H187.872V27.4574C187.895 29.1449 188.328 30.4676 189.171 31.4483Z" fill="#00D4B6"/>
<path d="M219.92 23.2384C219.92 26.2715 218.598 28.1871 215.953 28.9853L220.763 35.6672H216.82L212.42 29.487H208.34V35.6672H205.241V17.2635H212.079C214.882 17.2635 216.888 17.7424 218.096 18.6774C219.304 19.6352 219.92 21.1632 219.92 23.2384ZM215.794 25.861C216.432 25.3137 216.751 24.4471 216.751 23.2384C216.751 22.0298 216.432 21.2088 215.771 20.7527C215.133 20.2966 213.97 20.0913 212.307 20.0913H208.363V26.682H212.238C213.97 26.6592 215.156 26.3855 215.794 25.861Z" fill="#00D4B6"/>
<path d="M237.311 17.2635V20.1826H227.487V25.0628H236.308V27.8223H227.487V32.7481H237.607V35.6672H224.364V17.2635H237.311Z" fill="#00D4B6"/>
<path d="M269.792 17.2635H272.892V35.6672H269.518L259.102 22.235V35.6672H256.002V17.2635H259.102L269.792 31.015V17.2635Z" fill="#00D4B6"/>
<path d="M280.619 31.4938L278.772 35.69H275.467L283.582 17.2863H286.887L295.001 35.69H291.696L289.85 31.4938H280.619ZM288.551 28.6204L285.2 21.0491L281.85 28.6204H288.551Z" fill="#00D4B6"/>
<path d="M304.871 35.6672H301.406L294.021 17.2635H297.486L303.139 31.015L308.791 17.2635H312.256L304.871 35.6672Z" fill="#00D4B6"/>
<path d="M314.9 17.2635H318V35.6672H314.9V17.2635Z" fill="#00D4B6"/>
<path d="M67.7729 49.6467C67.1575 49.6239 66.5877 49.5554 66.1318 49.4414C65.3796 49.2134 65.2429 48.8941 65.2657 48.6432C65.2885 48.3924 65.5392 48.0275 66.5193 47.7767C67.659 47.503 69.3229 47.503 70.303 47.7539C71.078 47.9819 71.2148 48.3012 71.192 48.552C71.1692 48.8029 70.9412 49.1678 69.9839 49.4186C69.3457 49.5783 68.5251 49.6467 67.7729 49.6467ZM66.4965 48.7117C67.3171 48.9397 68.7987 48.9397 69.7788 48.6889C69.9839 48.6433 70.1207 48.5749 70.1891 48.552C70.1435 48.5292 70.0523 48.5064 69.9611 48.4608C69.1633 48.2328 67.7046 48.2556 66.7472 48.4836C66.5193 48.5292 66.3825 48.5976 66.2914 48.6432C66.337 48.666 66.4053 48.6889 66.4965 48.7117Z" fill="#00D4B6"/>
<path d="M36.1584 52.4289L36.1128 52.4061L39.0987 51.8588L42.0163 51.2886L39.6458 51.7219L36.7738 50.7413L40.2384 50.1028L43.156 51.0606L43.2244 51.0378L40.3068 50.08L43.7714 49.4414L46.689 50.3536L46.7574 50.3308L43.8626 49.4186L47.3044 48.7801L50.1992 49.6694L50.2675 49.6466L47.3728 48.7572L50.8146 48.1415L53.6866 48.9853L53.755 48.9625L50.883 48.1187L54.3248 47.503L57.174 48.324L57.2424 48.3011L54.3932 47.4802L57.835 46.8644L60.6614 47.6626L60.7298 47.6398L57.9034 46.8644L61.3224 46.2487L64.126 47.0013L64.1944 46.9785L61.3908 46.2259L64.8098 45.6102L67.5906 46.3399L67.659 46.3171L64.8782 45.5874L68.2972 44.9716L71.0324 45.6558L71.1008 45.633L68.3656 44.9488L71.7846 44.3331L74.497 44.9944L74.5654 44.9716L71.853 44.3103L75.2492 43.6945L77.9161 44.3331L77.9844 44.3103L75.3176 43.6717L78.7138 43.056L81.3579 43.6717L81.4263 43.6489L78.7822 43.0332L82.1785 42.4174L84.7769 42.9876L84.8453 42.9648L82.2468 42.3946L85.3923 41.8245L85.324 41.8017L82.1785 42.3718L78.6683 41.5736L81.9961 40.9807L82.3836 41.0719L81.6086 40.8667L78.5543 40.2053L78.7822 40.1597L78.7138 40.1369L78.4859 40.1825L78.3719 40.1597H78.3036L78.4403 40.1825L75.158 40.7755L74.9529 40.7299H74.8845L75.1125 40.7755L71.8302 41.3684L71.5339 41.3H71.4655L71.7618 41.3684L68.4796 41.9613L68.0921 41.8701H68.0237L68.4112 41.9613L65.1289 42.5543L64.6503 42.4402H64.5819L65.0605 42.5543L61.7555 43.1472L61.2084 43.0104H61.1401L61.6871 43.1472L58.382 43.7401L57.7438 43.5805H57.6754L58.3137 43.7401L55.0086 44.3331L54.302 44.1506H54.2336L54.9402 44.3331L51.544 45.1769L50.769 44.9716H50.7006L51.4756 45.1769L48.1478 45.7698L47.3044 45.5189H47.236L48.0794 45.7698L44.7515 46.3627L43.8398 46.0891H43.7714L44.6831 46.3627L41.3553 46.9557L40.398 46.6592H40.3296L41.2869 46.9557L37.9591 47.5714L35.2466 46.7276L37.8679 46.2487L37.8223 46.2259L35.201 46.7048L32.5798 45.8838L35.1555 45.4277L35.1099 45.4049L32.5342 45.861L30.0041 45.0628L32.5342 44.6067L32.4886 44.5839L29.9585 45.04L27.5196 44.2647L30.0041 43.8086L29.9585 43.7858L27.474 44.2419L25.1035 43.4893L27.5652 43.056L27.5196 43.0332L25.0579 43.4665L22.7558 42.7367L25.1719 42.3034L25.1263 42.2806L22.7102 42.7139L20.4764 42.0069L22.847 41.5736L22.8014 41.5508L20.4309 41.9841L18.2655 41.3L20.6132 40.8895L20.5676 40.8667L18.2199 41.2772L16.1229 40.6158L18.425 40.2053L18.3794 40.1825L16.0773 40.593L14.3222 40.0457H14.2766L16.0317 40.593L13.1141 41.1175L11.5642 40.6158H11.5186L13.0458 41.1175L10.1282 41.6421L8.78338 41.186H8.73779L10.0598 41.6421L7.94002 42.0297L7.9856 42.0526L10.1282 41.6649L12.134 42.349L9.90026 42.7367L9.94585 42.7595L12.1796 42.349L14.2538 43.056L11.9061 43.4665L11.9517 43.4893L14.2994 43.0788L16.442 43.8086L14.0031 44.2419L14.0487 44.2647L16.4876 43.8314L18.6985 44.5839L16.1457 45.04L16.1913 45.0628L18.7441 44.6067L21.0235 45.3821L18.3566 45.861L18.4022 45.8838L21.0691 45.4049L23.4168 46.2031L20.6132 46.7048L20.6588 46.7276L23.4624 46.2259L25.8785 47.0469L22.9609 47.5714L23.0065 47.5942L25.9241 47.0697L28.4314 47.9135L25.377 48.4608L25.4226 48.4836L28.477 47.9363L31.0754 48.8029L27.9071 49.373L27.9527 49.3958L31.121 48.8257L33.8106 49.7379L30.5056 50.3308L30.5512 50.3536L33.8562 49.7607L36.637 50.6957L33.1952 51.3342L33.2408 51.357L36.7054 50.7185L39.5774 51.6991L36.0444 52.3377L33.7651 51.5395L35.9988 52.3605L36.09 52.4061L36.1584 52.4289ZM40.2384 50.1028L37.3892 49.1677L40.7855 48.552L43.6802 49.4642L40.2384 50.1028ZM43.7714 49.4642L40.8766 48.552L44.2729 47.9363L47.236 48.8485L43.7714 49.4642ZM47.2816 48.8257L44.3184 47.9135L47.7147 47.2977L50.7234 48.1871L47.2816 48.8257ZM50.7918 48.1871L47.7831 47.2977L51.1565 46.682L54.2336 47.5714L50.7918 48.1871ZM54.302 47.5486L51.2249 46.6592L54.5983 46.0435L57.721 46.91L54.302 47.5486ZM57.8122 46.91L54.6895 46.0435L58.0629 45.4277L61.254 46.2943L57.8122 46.91ZM61.2996 46.2715L58.1085 45.4049L61.482 44.7892L64.7186 45.633L61.2996 46.2715ZM64.787 45.633L61.5503 44.7892L64.901 44.1734L68.206 45.0172L64.787 45.633ZM68.2744 45.0172L64.9694 44.1734L68.32 43.5577L71.6706 44.3787L68.2744 45.0172ZM71.739 44.3787L68.3884 43.5577L71.739 42.9419L75.1353 43.763L71.739 44.3787ZM75.2036 43.7401L71.8074 42.9192L75.158 42.3034L78.6227 43.1016L75.2036 43.7401ZM82.0645 42.5087L78.6683 43.1244L75.2036 42.3262L78.5315 41.7105L82.0645 42.5087ZM78.4175 40.3194L81.8593 41.0719L78.5315 41.6649L75.1353 40.9123L78.4175 40.3194ZM75.0897 40.9351L78.4859 41.6877L75.158 42.3034L71.8074 41.528L75.0897 40.9351ZM71.739 41.5508L75.0897 42.3262L71.739 42.9419L68.4568 42.1666L71.739 41.5508ZM68.3884 42.1438L71.6706 42.9192L68.32 43.5349L65.0833 42.7367L68.3884 42.1438ZM65.0377 42.7595L68.2744 43.5577L64.9238 44.1734L61.7327 43.3753L65.0377 42.7595ZM61.6643 43.3753L64.8554 44.1734L61.5047 44.7892L58.382 43.9682L61.6643 43.3753ZM58.2909 43.9682L61.4136 44.7892L58.0401 45.4049L54.963 44.5839L58.2909 43.9682ZM54.9174 44.5839L57.9945 45.4049L54.6211 46.0206L51.6124 45.1769L54.9174 44.5839ZM51.544 45.1997L54.5527 46.0435L51.1793 46.6592L48.2161 45.8154L51.544 45.1997ZM48.1478 45.8154L51.1109 46.6592L47.7375 47.2749L44.8199 46.4083L48.1478 45.8154ZM44.7515 46.4311L47.6691 47.2977L44.2729 47.9135L41.4237 47.0469L44.7515 46.4311ZM41.3553 47.0469L44.2045 47.9135L40.8082 48.5292L38.0046 47.6398L41.3553 47.0469ZM40.7627 48.552L37.3664 49.1677L34.6312 48.2783L37.9819 47.6626L40.7627 48.552ZM37.9135 47.6398L34.5628 48.2555L31.9188 47.3889L35.201 46.796L37.9135 47.6398ZM35.1555 46.7732L31.8732 47.3661L29.3203 46.5224L32.557 45.9294L35.1555 46.7732ZM32.4886 45.9294L29.2519 46.5224L26.7674 45.7242L29.9585 45.1541L32.4886 45.9294ZM29.913 45.1084L26.7219 45.6786L24.3285 44.9032L27.474 44.3331L29.913 45.1084ZM27.4285 44.3331L24.283 44.9032L21.958 44.1506L25.0579 43.6033L27.4285 44.3331ZM25.0124 43.5577L21.9124 44.105L19.6559 43.3753L22.7102 42.8279L25.0124 43.5577ZM22.6874 42.8279L19.6331 43.3753L17.4449 42.6683L20.4537 42.121L22.6874 42.8279ZM20.4081 42.0982L17.3993 42.6455L15.2795 41.9613L18.2427 41.4368L20.4081 42.0982ZM16.1229 40.7527L18.2199 41.414L15.2567 41.9385L13.2053 41.2772L16.1229 40.7527ZM10.2422 41.8017L13.1597 41.2772L15.2111 41.9385L12.248 42.463L10.2422 41.8017ZM12.2708 42.4858L15.2339 41.9613L17.3537 42.6455L14.345 43.1928L12.2708 42.4858ZM14.3906 43.2156L17.3993 42.6683L19.5875 43.3753L16.5332 43.9226L14.3906 43.2156ZM16.5788 43.9454L19.6331 43.3981L21.8896 44.1278L18.7897 44.6752L16.5788 43.9454ZM18.8125 44.698L21.9124 44.1506L24.2374 44.9032L21.0919 45.4733L18.8125 44.698ZM21.1375 45.4733L24.283 44.9032L26.6763 45.6786L23.4852 46.2487L21.1375 45.4733ZM23.5308 46.2943L26.7219 45.7242L29.2064 46.5224L25.9697 47.1153L23.5308 46.2943ZM25.9925 47.1153L29.2292 46.5224L31.782 47.3661L28.477 47.9591L25.9925 47.1153ZM28.5453 47.9819L31.8504 47.3889L34.4945 48.2555L31.1438 48.8713L28.5453 47.9819ZM31.1894 48.8713L34.54 48.2555L37.2753 49.1449L33.879 49.7607L31.1894 48.8713ZM33.9474 49.8063L37.3436 49.1905L40.17 50.1256L36.7054 50.7641L33.9474 49.8063Z" fill="#00D4B6"/>
<path d="M99.5927 43.5121C99.889 42.8963 98.8405 42.5999 98.2479 42.4403L97.906 42.3718L73.6309 37.2863L50.222 32.2692C49.1051 32.0411 47.9654 32.0183 46.8257 32.2236L36.1356 34.0708L36.8878 34.8462L46.9625 32.9761C47.9882 32.7709 49.0367 32.7937 50.0624 32.9989L86.2357 40.7527L97.3361 43.1472C97.3361 43.1472 98.1567 43.4665 97.4729 43.7173L41.4009 54.9374C39.6458 55.2795 37.4348 55.2111 36.3635 54.8006L1.2843 41.5052C1.44386 41.4596 1.67179 41.414 1.94531 41.3684L21.9808 37.6056L22.4823 36.8302L1.76297 40.6158C0.281391 40.8895 0.0306594 41.2088 0.00786586 41.4596C-0.0149276 41.5508 -0.0149249 41.8245 0.395358 41.9841L35.9532 55.5532C36.6142 55.804 37.526 55.9409 38.5517 55.9865C39.6002 56.0321 40.7171 55.9637 41.7656 55.7584L96.3332 44.9488C96.3332 45.04 99.0912 44.5383 99.5927 43.5121Z" fill="#00D4B6"/>
<path d="M88.7886 41.6649L78.4631 39.6352L76.1154 40.0001L87.6033 42.4403L36.7966 51.8588C36.5458 51.9044 36.2951 51.9044 36.1128 51.8359L7.66648 41.6877L16.1685 40.1597L21.7985 38.9739V38.2213L7.05106 41.0035C6.68636 41.0719 6.39004 41.3228 6.36725 41.6193C6.34446 41.8701 6.50401 42.0982 6.77753 42.2122L35.6797 52.6113C35.9076 52.6797 36.1356 52.7253 36.4091 52.7481C36.6142 52.7481 36.8422 52.7481 37.0701 52.7025L88.3555 43.3069C89.1304 43.17 89.6775 42.7367 89.6091 42.3262C89.6091 41.9613 89.2672 41.7333 88.7886 41.6649Z" fill="#00D4B6"/>
<path d="M21.8668 36.4197L21.9352 41.1176L39.9193 46.3399L78.03 39.4756L79.5572 39.7265L39.6458 47.0925L21.0919 41.7561L20.8411 33.113" fill="white"/>
<path d="M48.011 33.113L39.7598 34.5497L39.737 29.7606L41.2414 29.487L73.0155 23.7173L72.8787 23.1472L41.4237 28.8712L29.5483 9.05361L59.8409 4.03649L65.6532 3.07869L65.8811 1.93843H65.9267L63.5334 0L59.1343 0.729752L26.9042 6.08895L16.3053 21.6648L17.6729 23.2612L17.7413 23.17L21.6617 22.8279L21.9581 40.9807L23.736 41.4596L39.9193 46.1575L63.9209 42.235L77.8705 39.3388L48.0566 33.1358L48.011 33.113ZM59.499 3.01026L65.4481 2.00684L65.2885 2.73661L60.2511 3.55759L29.3432 8.68873L28.9785 8.0958L59.499 3.01026ZM21.525 22.463L18.0148 22.7595L27.3145 9.16763L28.477 11.1289L21.525 22.463ZM25.0124 41.2088L24.9212 17.6967L28.7049 11.4938L35.5202 23.0331L35.6114 44.3103L25.0124 41.2088ZM39.9193 45.6102L39.7826 45.5645L39.737 35.1198L47.9882 33.6831L75.0669 39.0651L39.9193 45.6102Z" fill="#00D4B6"/>
</svg>
