<svg xmlns="http://www.w3.org/2000/svg" viewBox="0 0 604.4 530.6" font-family="sans-serif">
<rect width="604.4" height="530.6" fill="white"/>
<text x="40" y="24" font-size="16" font-weight="bold">2LDK 58.09㎡ マンション（LD9.6帖 + 独立キッチン3.3帖 + 洋室4.3/6.3帖） [我们的生成]  （8.74m × 6.61m）</text>
<polygon points="40,460.6 154,460.6 154,276.40000000000003 40,276.40000000000003" fill="#f9d9a6" stroke="#444" stroke-width="2"/>
<text x="97" y="364.5" font-size="12" text-anchor="middle">キッチン</text>
<text x="97" y="380.5" font-size="10" text-anchor="middle" fill="#666">5.8㎡</text>
<polygon points="154,331 262,331 262,460.6 564.4,460.6 564.4,354.4 474.40000000000003,354.4 474.40000000000003,276.40000000000003 154,276.40000000000003" fill="#fde9c8" stroke="#444" stroke-width="2"/>
<text x="359.20000000000005" y="364.5" font-size="12" text-anchor="middle">リビング・ダイニング ⊞</text>
<text x="359.20000000000005" y="380.5" font-size="10" text-anchor="middle" fill="#666">15.2㎡</text>
<polygon points="154,460.6 262,460.6 262,331 154,331" fill="#e8e2d4" stroke="#444" stroke-width="2"/>
<text x="208" y="391.8" font-size="12" text-anchor="middle">玄関</text>
<text x="208" y="407.8" font-size="10" text-anchor="middle" fill="#666">3.9㎡</text>
<polygon points="474.40000000000003,354.4 564.4,354.4 564.4,276.40000000000003 474.40000000000003,276.40000000000003" fill="#d4ecec" stroke="#444" stroke-width="2"/>
<text x="519.4000000000001" y="311.40000000000003" font-size="12" text-anchor="middle">トイレ</text>
<text x="519.4000000000001" y="327.40000000000003" font-size="10" text-anchor="middle" fill="#666">1.9㎡</text>
<polygon points="40,221.8 163.60000000000002,221.8 163.60000000000002,143.8 253.6,143.8 253.6,64 40,64" fill="#cfe3f5" stroke="#444" stroke-width="2"/>
<text x="146.8" y="138.90000000000003" font-size="12" text-anchor="middle">洋室 ⊞</text>
<text x="146.8" y="154.90000000000003" font-size="10" text-anchor="middle" fill="#666">7.4㎡</text>
<polygon points="163.60000000000002,221.8 253.6,221.8 253.6,143.8 163.60000000000002,143.8" fill="#d4ecec" stroke="#444" stroke-width="2"/>
<text x="208.6" y="178.8" font-size="12" text-anchor="middle">洗面室</text>
<text x="208.6" y="194.8" font-size="10" text-anchor="middle" fill="#666">1.9㎡</text>
<polygon points="253.6,221.8 564.4,221.8 564.4,64 388.59999999999997,64 388.59999999999997,167.8 253.6,167.8" fill="#cfe3f5" stroke="#444" stroke-width="2"/>
<text x="409" y="138.90000000000003" font-size="12" text-anchor="middle">主寝室 ⊞</text>
<text x="409" y="154.90000000000003" font-size="10" text-anchor="middle" fill="#666">9.7㎡</text>
<polygon points="253.6,167.8 388.59999999999997,167.8 388.59999999999997,64 253.6,64" fill="#d4ecec" stroke="#444" stroke-width="2"/>
<text x="321.09999999999997" y="111.9" font-size="12" text-anchor="middle">浴室</text>
<text x="321.09999999999997" y="127.9" font-size="10" text-anchor="middle" fill="#666">3.9㎡</text>
<polygon points="40,276.40000000000003 564.4,276.40000000000003 564.4,221.8 40,221.8" fill="#eeeeee" stroke="#444" stroke-width="2"/>
<text x="302.2" y="245.10000000000002" font-size="12" text-anchor="middle">走廊</text>
<text x="302.2" y="261.1" font-size="10" text-anchor="middle" fill="#666">8.0㎡</text>
<circle cx="314.20000000000005" cy="276.40000000000003" r="6" fill="#c0392b"/>
<circle cx="101.80000000000001" cy="221.8" r="6" fill="#c0392b"/>
<circle cx="409" cy="221.8" r="6" fill="#c0392b"/>
<circle cx="154" cy="303.70000000000005" r="6" fill="#c0392b"/>
<circle cx="262" cy="395.8" r="6" fill="#c0392b"/>
<circle cx="519.4000000000001" cy="276.40000000000003" r="6" fill="#c0392b"/>
<circle cx="321.09999999999997" cy="167.8" r="6" fill="#c0392b"/>
<circle cx="208.6" cy="143.8" r="6" fill="#c0392b"/>
<polygon points="202,474.6 214,474.6 208,464.6" fill="#c0392b"/>
<text x="208" y="488.6" font-size="12" text-anchor="middle" fill="#c0392b" font-weight="bold">入户</text>
<text x="40" y="522.6" font-size="10" fill="#888">红点=门（位置由执行器按共享墙段中点计算） ⊞=需外窗</text>
</svg>