<?xml version="1.0" standalone="no"?><!DOCTYPE svg PUBLIC "-//W3C//DTD SVG 1.1//EN" "http://www.w3.org/Graphics/SVG/1.1/DTD/svg11.dtd"><svg t="1780889243879" class="icon" viewBox="0 0 1024 1024" version="1.1" xmlns="http://www.w3.org/2000/svg" p-id="74312" width="16" height="16" xmlns:xlink="http://www.w3.org/1999/xlink"><path d="M512 0a512 512 0 0 0-512 512 512 512 0 0 0 512 512 512 512 0 0 0 512-512 512 512 0 0 0-512-512z m0 910.222222a398.222222 398.222222 0 0 1-381.496889-284.387555l157.070222 0.398222 96.483556-154.339556h55.921778l116.792889 322.787556 79.018666 0.796444 147.171556-227.441777L905.671111 568.888889c-27.591111 192.910222-193.080889 341.333333-393.671111 341.333333z m220.615111-455.111111l-106.552889 148.593778-45.511111 0.512-120.775111-320.284445-88.917333 0.398223L243.143111 512.568889h-129.137778v4.892444C114.005333 515.640889 113.777778 513.877333 113.777778 512a398.222222 398.222222 0 0 1 398.222222-398.222222c200.590222 0 366.023111 148.423111 393.671111 341.333333h-173.056z m177.095111 46.819556c0.113778 3.413333 0.512 6.656 0.512 10.069333 0 2.503111-0.341333 4.892444-0.398222 7.395556l-0.113778-17.464889z" fill="#1E2330" p-id="74313"></path></svg>