<?xml version="1.0" encoding="UTF-8"?>
<svg viewBox="0 0 1024 1024" width="28" height="28" xmlns="http://www.w3.org/2000/svg" aria-hidden="true">
  <path fill="#3E3A39" d="M512 96c-164.6 0-298 55.7-298 124.5v583C214 872.3 347.4 928 512 928s298-55.7 298-124.5v-583C810 151.7 676.6 96 512 96Zm0 72c133.1 0 226 39.5 226 74s-92.9 74-226 74-226-39.5-226-74 92.9-74 226-74Zm226 635.5c0 34.5-92.9 74-226 74s-226-39.5-226-74V658.8c53.6 38.5 136.2 61.7 226 61.7s172.4-23.2 226-61.7v144.7Zm0-245c0 34.5-92.9 74-226 74s-226-39.5-226-74V415.8c53.6 38.5 136.2 61.7 226 61.7s172.4-23.2 226-61.7v142.7Zm0-243.5c0 34.5-92.9 74-226 74s-226-39.5-226-74v-23.2c53.6 38.5 136.2 61.7 226 61.7s172.4-23.2 226-61.7V315Z"/>
  <path fill="#3E3A39" d="M366 792h292a32 32 0 1 1 0 64H366a32 32 0 1 1 0-64Zm0-242h292a32 32 0 1 1 0 64H366a32 32 0 1 1 0-64Z" opacity="0.55"/>
</svg>
