<?xml version="1.0" standalone="no"?><!DOCTYPE svg PUBLIC "-//W3C//DTD SVG 1.1//EN" "http://www.w3.org/Graphics/SVG/1.1/DTD/svg11.dtd"><svg t="1780895013212" class="icon" viewBox="0 0 1024 1024" version="1.1" xmlns="http://www.w3.org/2000/svg" p-id="85846" xmlns:xlink="http://www.w3.org/1999/xlink" width="16" height="16"><path d="M381.905455 920.762182L358.213818 1011.432727H301.265455v-127.883636c-32.768-22.528-51.898182-50.292364-51.898182-80.174546v-20.433454c64 19.921455 151.691636 29.346909 264.098909 29.346909 115.432727 0 206.661818-9.960727 274.711273-30.929455v21.504c0 35.095273-26.205091 67.072-69.562182 91.182546v116.852364H661.178182l-22.690909-86.458182c-36.282182 8.913455-76.613818 14.149818-119.947637 14.149818-49.896727 1.047273-96.279273-5.771636-136.610909-17.826909zM248.832 740.491636V154.065455c58.973091-20.945455 147.2-31.953455 264.145455-31.953455 119.458909 0 210.688 11.008 274.688 33.000727v583.819637c-63.511273 21.992727-155.229091 33.000727-274.711273 33.000727-116.922182 0.535273-205.149091-10.472727-264.122182-31.418182z m0-629.387636v-20.433455C248.832 40.354909 369.338182 0 518.004364 0c148.712727 0 269.172364 40.354909 269.172363 90.670545v21.992728c-68.049455-20.945455-159.278545-30.906182-274.711272-30.906182-111.895273-0.535273-199.610182 9.425455-263.633455 29.323636z m173.381818 582.749091c41.867636 0 75.636364-35.630545 75.636364-79.662546 0-44.008727-33.768727-79.662545-75.636364-79.662545-41.821091 0-75.589818 35.653818-75.589818 79.662545 0 44.032 34.280727 79.662545 75.613091 79.662546z" p-id="85847"></path></svg>