<?xml version="1.0" standalone="no"?><!DOCTYPE svg PUBLIC "-//W3C//DTD SVG 1.1//EN" "http://www.w3.org/Graphics/SVG/1.1/DTD/svg11.dtd"><svg t="1780888391041" class="icon" viewBox="0 0 1024 1024" version="1.1" xmlns="http://www.w3.org/2000/svg" p-id="58832" xmlns:xlink="http://www.w3.org/1999/xlink" width="28" height="28"><path d="M975.967 260.8l-2.88 468.478c0 13.92-3.392 26.816-10.112 38.72-6.72 11.904-15.904 21.344-27.392 27.904l-389.631 218.56a63.168 63.168 0 0 1-33.984 9.535c-12.288 0-23.552-3.104-33.984-9.536L85.409 785.406a74.528 74.528 0 0 1-27.392-27.904 77.344 77.344 0 0 1-10.048-38.72V260.799c0-15.872 4.16-30.4 12.768-43.52 8.576-13.12 19.936-22.432 33.984-27.904L487.264 4.736C495.488 1.6 503.616 0 511.744 0c8.224 0 16.32 1.6 24.48 4.704L928.99 189.375c14.048 5.44 25.408 14.88 33.984 27.904 8.704 13.024 12.992 27.648 12.992 43.52z m-464 150.303l362.688-167.52L511.968 76.032l-368 167.551 368 167.52z m35.617 527.87L904.51 735.998V319.999L547.584 478.463v460.51z" p-id="58833"></path></svg>