<svg xmlns="http://www.w3.org/2000/svg" viewBox="0 0 380 854" font-family="sans-serif">
<rect width="380" height="854" fill="white"/>
<text x="40" y="24" font-size="16" font-weight="bold">反例：60㎡ 全长走廊 + 细长 LDK [参照]  （5m × 12m）</text>
<polygon points="160,784 220,784 220,64 160,64" fill="#eeeeee" stroke="#444" stroke-width="2"/>
<text x="190" y="420" font-size="12" text-anchor="middle">廊下</text>
<text x="190" y="436" font-size="10" text-anchor="middle" fill="#666">12.0㎡</text>
<polygon points="40,784 160,784 160,514 40,514" fill="#cfe3f5" stroke="#444" stroke-width="2"/>
<text x="100" y="645" font-size="12" text-anchor="middle">洋室1 ⊞</text>
<text x="100" y="661" font-size="10" text-anchor="middle" fill="#666">9.0㎡</text>
<polygon points="40,514 160,514 160,244 40,244" fill="#cfe3f5" stroke="#444" stroke-width="2"/>
<text x="100" y="375" font-size="12" text-anchor="middle">洋室2 ⊞</text>
<text x="100" y="391" font-size="10" text-anchor="middle" fill="#666">9.0㎡</text>
<polygon points="40,244 160,244 160,64 40,64" fill="#d4ecec" stroke="#444" stroke-width="2"/>
<text x="100" y="150" font-size="12" text-anchor="middle">浴室・洗面</text>
<text x="100" y="166" font-size="10" text-anchor="middle" fill="#666">6.0㎡</text>
<polygon points="220,784 340,784 340,364 220,364" fill="#fde9c8" stroke="#444" stroke-width="2"/>
<text x="280" y="570" font-size="12" text-anchor="middle">LDK ⊞</text>
<text x="280" y="586" font-size="10" text-anchor="middle" fill="#666">14.0㎡</text>
<polygon points="220,364 340,364 340,214 220,214" fill="#f9d9a6" stroke="#444" stroke-width="2"/>
<text x="280" y="285" font-size="12" text-anchor="middle">キッチン</text>
<text x="280" y="301" font-size="10" text-anchor="middle" fill="#666">5.0㎡</text>
<polygon points="220,214 340,214 340,64 220,64" fill="#d4ecec" stroke="#444" stroke-width="2"/>
<text x="280" y="135" font-size="12" text-anchor="middle">トイレ</text>
<text x="280" y="151" font-size="10" text-anchor="middle" fill="#666">5.0㎡</text>
<circle cx="160" cy="649" r="6" fill="#c0392b"/>
<circle cx="160" cy="379" r="6" fill="#c0392b"/>
<circle cx="160" cy="154" r="6" fill="#c0392b"/>
<circle cx="220" cy="574" r="6" fill="#c0392b"/>
<circle cx="220" cy="289" r="6" fill="#c0392b"/>
<circle cx="220" cy="139" r="6" fill="#c0392b"/>
<polygon points="184,798 196,798 190,788" fill="#c0392b"/>
<text x="190" y="812" font-size="12" text-anchor="middle" fill="#c0392b" font-weight="bold">入户</text>
<text x="40" y="846" font-size="10" fill="#888">红点=门（位置由执行器按共享墙段中点计算） ⊞=需外窗</text>
</svg>