<svg xmlns="http://www.w3.org/2000/svg" viewBox="0 0 404 680" font-family="sans-serif">
<rect width="404" height="680" fill="white"/>
<text x="40" y="24" font-size="16" font-weight="bold">3DK 48.96㎡ マンション（DK6.1帖 + 洋室4.3/6.0/6.0帖・中央動線） [参照]  （5.4m × 9.1m）</text>
<polygon points="40,610 196,610 196,447.99999999999994 40,447.99999999999994" fill="#cfe3f5" stroke="#444" stroke-width="2"/>
<text x="118" y="525" font-size="12" text-anchor="middle">洋室（北） ⊞</text>
<text x="118" y="541" font-size="10" text-anchor="middle" fill="#666">7.0㎡</text>
<polygon points="196,610 262,610 262,532 196,532" fill="#d4ecec" stroke="#444" stroke-width="2"/>
<text x="229.00000000000003" y="567" font-size="12" text-anchor="middle">トイレ</text>
<text x="229.00000000000003" y="583" font-size="10" text-anchor="middle" fill="#666">1.4㎡</text>
<polygon points="262,610 364,610 364,532 262,532" fill="#e8e2d4" stroke="#444" stroke-width="2"/>
<text x="313.00000000000006" y="567" font-size="12" text-anchor="middle">玄関</text>
<text x="313.00000000000006" y="583" font-size="10" text-anchor="middle" fill="#666">2.2㎡</text>
<polygon points="196,532 364,532 364,447.99999999999994 196,447.99999999999994" fill="#eeeeee" stroke="#444" stroke-width="2"/>
<text x="280" y="486" font-size="12" text-anchor="middle">廊下</text>
<text x="280" y="502" font-size="10" text-anchor="middle" fill="#666">3.9㎡</text>
<polygon points="40,447.99999999999994 268,447.99999999999994 268,280 40,280" fill="#fde9c8" stroke="#444" stroke-width="2"/>
<text x="154" y="360" font-size="12" text-anchor="middle">DK ⊞</text>
<text x="154" y="376" font-size="10" text-anchor="middle" fill="#666">10.6㎡</text>
<polygon points="268,447.99999999999994 364,447.99999999999994 364,370 268,370" fill="#d4ecec" stroke="#444" stroke-width="2"/>
<text x="316" y="405" font-size="12" text-anchor="middle">洗面室</text>
<text x="316" y="421" font-size="10" text-anchor="middle" fill="#666">2.1㎡</text>
<polygon points="268,370 364,370 364,280 268,280" fill="#d4ecec" stroke="#444" stroke-width="2"/>
<text x="316" y="321" font-size="12" text-anchor="middle">浴室</text>
<text x="316" y="337" font-size="10" text-anchor="middle" fill="#666">2.4㎡</text>
<polygon points="40,280 202,280 202,64 40,64" fill="#cfe3f5" stroke="#444" stroke-width="2"/>
<text x="121" y="168" font-size="12" text-anchor="middle">洋室（南西） ⊞</text>
<text x="121" y="184" font-size="10" text-anchor="middle" fill="#666">9.7㎡</text>
<polygon points="268,280 364,280 364,237.99999999999997 268,237.99999999999997" fill="#e5ddee" stroke="#444" stroke-width="2"/>
<text x="316" y="255" font-size="12" text-anchor="middle">クローゼット</text>
<text x="316" y="271" font-size="10" text-anchor="middle" fill="#666">1.1㎡</text>
<polygon points="202,280 268,280 268,237.99999999999997 364,237.99999999999997 364,64 202,64" fill="#cfe3f5" stroke="#444" stroke-width="2"/>
<text x="283.00000000000006" y="168" font-size="12" text-anchor="middle">洋室（南東） ⊞</text>
<text x="283.00000000000006" y="184" font-size="10" text-anchor="middle" fill="#666">8.6㎡</text>
<circle cx="313.00000000000006" cy="532" r="6" fill="#c0392b"/>
<circle cx="229.00000000000003" cy="532" r="6" fill="#c0392b"/>
<circle cx="196" cy="490" r="6" fill="#c0392b"/>
<circle cx="232" cy="447.99999999999994" r="6" fill="#c0392b"/>
<circle cx="316" cy="447.99999999999994" r="6" fill="#c0392b"/>
<circle cx="316" cy="370" r="6" fill="#c0392b"/>
<circle cx="121" cy="280" r="6" fill="#c0392b"/>
<circle cx="235" cy="280" r="6" fill="#c0392b"/>
<circle cx="316" cy="237.99999999999997" r="6" fill="#c0392b"/>
<polygon points="307.00000000000006,624 319.00000000000006,624 313.00000000000006,614" fill="#c0392b"/>
<text x="313.00000000000006" y="638" font-size="12" text-anchor="middle" fill="#c0392b" font-weight="bold">入户</text>
<text x="40" y="672" font-size="10" fill="#888">红点=门（位置由执行器按共享墙段中点计算） ⊞=需外窗</text>
</svg>