<svg xmlns="http://www.w3.org/2000/svg" viewBox="0 0 380 830" font-family="sans-serif">
<rect width="380" height="830" fill="white"/>
<text x="40" y="24" font-size="16" font-weight="bold">反例：60㎡ 全长走廊 + 细长 LDK [参照]  （5m × 12m）</text>
<polygon points="160,760 220,760 220,40 160,40" fill="#eeeeee" stroke="#444" stroke-width="2"/>
<text x="190" y="396" font-size="12" text-anchor="middle">廊下</text>
<text x="190" y="412" font-size="10" text-anchor="middle" fill="#666">12.0㎡</text>
<polygon points="40,760 160,760 160,490 40,490" fill="#cfe3f5" stroke="#444" stroke-width="2"/>
<text x="100" y="621" font-size="12" text-anchor="middle">洋室1 ⊞</text>
<text x="100" y="637" font-size="10" text-anchor="middle" fill="#666">9.0㎡</text>
<polygon points="40,490 160,490 160,220 40,220" fill="#cfe3f5" stroke="#444" stroke-width="2"/>
<text x="100" y="351" font-size="12" text-anchor="middle">洋室2 ⊞</text>
<text x="100" y="367" font-size="10" text-anchor="middle" fill="#666">9.0㎡</text>
<polygon points="40,220 160,220 160,40 40,40" fill="#d4ecec" stroke="#444" stroke-width="2"/>
<text x="100" y="126" font-size="12" text-anchor="middle">浴室・洗面</text>
<text x="100" y="142" font-size="10" text-anchor="middle" fill="#666">6.0㎡</text>
<polygon points="220,760 340,760 340,340 220,340" fill="#fde9c8" stroke="#444" stroke-width="2"/>
<text x="280" y="546" font-size="12" text-anchor="middle">LDK ⊞</text>
<text x="280" y="562" font-size="10" text-anchor="middle" fill="#666">14.0㎡</text>
<polygon points="220,340 340,340 340,190 220,190" fill="#f9d9a6" stroke="#444" stroke-width="2"/>
<text x="280" y="261" font-size="12" text-anchor="middle">キッチン</text>
<text x="280" y="277" font-size="10" text-anchor="middle" fill="#666">5.0㎡</text>
<polygon points="220,190 340,190 340,40 220,40" fill="#d4ecec" stroke="#444" stroke-width="2"/>
<text x="280" y="111" font-size="12" text-anchor="middle">トイレ</text>
<text x="280" y="127" font-size="10" text-anchor="middle" fill="#666">5.0㎡</text>
<circle cx="160" cy="625" r="6" fill="#c0392b"/>
<circle cx="160" cy="355" r="6" fill="#c0392b"/>
<circle cx="160" cy="130" r="6" fill="#c0392b"/>
<circle cx="220" cy="550" r="6" fill="#c0392b"/>
<circle cx="220" cy="265" r="6" fill="#c0392b"/>
<circle cx="220" cy="115" r="6" fill="#c0392b"/>
<text x="190" y="776" font-size="12" text-anchor="middle" fill="#c0392b" font-weight="bold">▲ 入户</text>
<text x="40" y="822" font-size="10" fill="#888">红点=门（位置由执行器按共享墙段中点计算） ⊞=需外窗</text>
</svg>