<svg xmlns="http://www.w3.org/2000/svg" viewBox="0 0 392 614" font-family="sans-serif">
<rect width="392" height="614" fill="white"/>
<text x="40" y="24" font-size="16" font-weight="bold">2DK 41.72㎡ マンション（DK7.0帖 + 洋室6帖×2・中央玄関） [参照]  （5.2m × 8m）</text>
<polygon points="40,544 124,544 124,472 40,472" fill="#d4ecec" stroke="#444" stroke-width="2"/>
<text x="82" y="504" font-size="12" text-anchor="middle">トイレ</text>
<text x="82" y="520" font-size="10" text-anchor="middle" fill="#666">1.7㎡</text>
<polygon points="124,544 202,544 202,472 124,472" fill="#e8e2d4" stroke="#444" stroke-width="2"/>
<text x="163" y="504" font-size="12" text-anchor="middle">玄関</text>
<text x="163" y="520" font-size="10" text-anchor="middle" fill="#666">1.6㎡</text>
<polygon points="40,472 124,472 124,388 40,388" fill="#d4ecec" stroke="#444" stroke-width="2"/>
<text x="82" y="426" font-size="12" text-anchor="middle">洗面室</text>
<text x="82" y="442" font-size="10" text-anchor="middle" fill="#666">2.0㎡</text>
<polygon points="124,472 202,472 202,388 124,388" fill="#eeeeee" stroke="#444" stroke-width="2"/>
<text x="163" y="426" font-size="12" text-anchor="middle">廊下</text>
<text x="163" y="442" font-size="10" text-anchor="middle" fill="#666">1.8㎡</text>
<polygon points="40,388 124,388 124,304 40,304" fill="#d4ecec" stroke="#444" stroke-width="2"/>
<text x="82" y="342" font-size="12" text-anchor="middle">浴室</text>
<text x="82" y="358" font-size="10" text-anchor="middle" fill="#666">2.0㎡</text>
<polygon points="40,304 124,304 124,268 40,268" fill="#e5ddee" stroke="#444" stroke-width="2"/>
<text x="82" y="282" font-size="12" text-anchor="middle">物入</text>
<text x="82" y="298" font-size="10" text-anchor="middle" fill="#666">0.8㎡</text>
<polygon points="202,544 352,544 352,322 316,322 316,268 124,268 124,388 202,388" fill="#fde9c8" stroke="#444" stroke-width="2"/>
<text x="238" y="402" font-size="12" text-anchor="middle">DK</text>
<text x="238" y="418" font-size="10" text-anchor="middle" fill="#666">13.6㎡</text>
<polygon points="316,322 352,322 352,268 316,268" fill="#e5ddee" stroke="#444" stroke-width="2"/>
<text x="334" y="291" font-size="12" text-anchor="middle">収納</text>
<text x="334" y="307" font-size="10" text-anchor="middle" fill="#666">0.5㎡</text>
<polygon points="40,268 196,268 196,64 40,64" fill="#cfe3f5" stroke="#444" stroke-width="2"/>
<text x="118" y="162" font-size="12" text-anchor="middle">洋室1 ⊞</text>
<text x="118" y="178" font-size="10" text-anchor="middle" fill="#666">8.8㎡</text>
<polygon points="196,268 352,268 352,64 196,64" fill="#cfe3f5" stroke="#444" stroke-width="2"/>
<text x="274" y="162" font-size="12" text-anchor="middle">洋室2 ⊞</text>
<text x="274" y="178" font-size="10" text-anchor="middle" fill="#666">8.8㎡</text>
<circle cx="163" cy="472" r="6" fill="#c0392b"/>
<circle cx="82" cy="472" r="6" fill="#c0392b"/>
<circle cx="124" cy="430" r="6" fill="#c0392b"/>
<circle cx="82" cy="388" r="6" fill="#c0392b"/>
<circle cx="202" cy="430" r="6" fill="#c0392b"/>
<circle cx="82" cy="268" r="6" fill="#c0392b"/>
<circle cx="316" cy="295" r="6" fill="#c0392b"/>
<circle cx="160" cy="268" r="6" fill="#c0392b"/>
<circle cx="255.99999999999997" cy="268" r="6" fill="#c0392b"/>
<polygon points="157,558 169,558 163,548" fill="#c0392b"/>
<text x="163" y="572" font-size="12" text-anchor="middle" fill="#c0392b" font-weight="bold">入户</text>
<text x="40" y="606" font-size="10" fill="#888">红点=门（位置由执行器按共享墙段中点计算） ⊞=需外窗</text>
</svg>