<svg xmlns="http://www.w3.org/2000/svg" viewBox="0 0 458 680" font-family="sans-serif">
<rect width="458" height="680" fill="white"/>
<text x="40" y="24" font-size="16" font-weight="bold">2LDK 59.9㎡ 田の字マンション（中廊下） [参照]  （6.3m × 9.5m）</text>
<polygon points="202,610 256,610 256,526 202,526" fill="#e8e2d4" stroke="#444" stroke-width="2"/>
<text x="229.00000000000003" y="564" font-size="12" text-anchor="middle">玄関</text>
<text x="229.00000000000003" y="580" font-size="10" text-anchor="middle" fill="#666">1.3㎡</text>
<polygon points="202,526 256,526 256,280 202,280" fill="#eeeeee" stroke="#444" stroke-width="2"/>
<text x="229.00000000000003" y="399" font-size="12" text-anchor="middle">廊下</text>
<text x="229.00000000000003" y="415" font-size="10" text-anchor="middle" fill="#666">3.7㎡</text>
<polygon points="40,610 202,610 202,412 40,412" fill="#cfe3f5" stroke="#444" stroke-width="2"/>
<text x="121" y="507" font-size="12" text-anchor="middle">洋室1 ⊞</text>
<text x="121" y="523" font-size="10" text-anchor="middle" fill="#666">8.9㎡</text>
<polygon points="130,412 202,412 202,280 130,280" fill="#d4ecec" stroke="#444" stroke-width="2"/>
<text x="166" y="342" font-size="12" text-anchor="middle">洗面脱衣室</text>
<text x="166" y="358" font-size="10" text-anchor="middle" fill="#666">2.6㎡</text>
<polygon points="40,412 130,412 130,280 40,280" fill="#d4ecec" stroke="#444" stroke-width="2"/>
<text x="85" y="342" font-size="12" text-anchor="middle">浴室</text>
<text x="85" y="358" font-size="10" text-anchor="middle" fill="#666">3.3㎡</text>
<polygon points="256,610 418,610 418,400 256,400" fill="#cfe3f5" stroke="#444" stroke-width="2"/>
<text x="337" y="501" font-size="12" text-anchor="middle">洋室2 ⊞</text>
<text x="337" y="517" font-size="10" text-anchor="middle" fill="#666">9.4㎡</text>
<polygon points="256,400 322,400 322,280 256,280" fill="#d4ecec" stroke="#444" stroke-width="2"/>
<text x="289" y="336" font-size="12" text-anchor="middle">トイレ</text>
<text x="289" y="352" font-size="10" text-anchor="middle" fill="#666">2.2㎡</text>
<polygon points="322,400 418,400 418,280 322,280" fill="#e5ddee" stroke="#444" stroke-width="2"/>
<text x="370" y="336" font-size="12" text-anchor="middle">収納</text>
<text x="370" y="352" font-size="10" text-anchor="middle" fill="#666">3.2㎡</text>
<polygon points="40,280 418,280 418,40 40,40" fill="#fde9c8" stroke="#444" stroke-width="2"/>
<text x="229" y="156" font-size="12" text-anchor="middle">LDK ⊞</text>
<text x="229" y="172" font-size="10" text-anchor="middle" fill="#666">25.2㎡</text>
<circle cx="229.00000000000003" cy="526" r="6" fill="#c0392b"/>
<circle cx="202" cy="469" r="6" fill="#c0392b"/>
<circle cx="256" cy="463" r="6" fill="#c0392b"/>
<circle cx="202" cy="346" r="6" fill="#c0392b"/>
<circle cx="130" cy="346" r="6" fill="#c0392b"/>
<circle cx="256" cy="340" r="6" fill="#c0392b"/>
<circle cx="370" cy="400" r="6" fill="#c0392b"/>
<circle cx="229.00000000000003" cy="280" r="6" fill="#c0392b"/>
<text x="229.00000000000003" y="626" font-size="12" text-anchor="middle" fill="#c0392b" font-weight="bold">▲ 入户</text>
<text x="40" y="672" font-size="10" fill="#888">红点=门（位置由执行器按共享墙段中点计算） ⊞=需外窗</text>
</svg>