<svg xmlns="http://www.w3.org/2000/svg" viewBox="0 0 458 704" font-family="sans-serif">
<rect width="458" height="704" fill="white"/>
<text x="40" y="24" font-size="16" font-weight="bold">2LDK 59.9㎡ 田の字マンション（中廊下） [参照]  （6.3m × 9.5m）</text>
<polygon points="202,634 256,634 256,550 202,550" fill="#e8e2d4" stroke="#444" stroke-width="2"/>
<text x="229.00000000000003" y="588" font-size="12" text-anchor="middle">玄関</text>
<text x="229.00000000000003" y="604" font-size="10" text-anchor="middle" fill="#666">1.3㎡</text>
<polygon points="202,550 256,550 256,304 202,304" fill="#eeeeee" stroke="#444" stroke-width="2"/>
<text x="229.00000000000003" y="423" font-size="12" text-anchor="middle">廊下</text>
<text x="229.00000000000003" y="439" font-size="10" text-anchor="middle" fill="#666">3.7㎡</text>
<polygon points="40,634 202,634 202,436 40,436" fill="#cfe3f5" stroke="#444" stroke-width="2"/>
<text x="121" y="531" font-size="12" text-anchor="middle">洋室1 ⊞</text>
<text x="121" y="547" font-size="10" text-anchor="middle" fill="#666">8.9㎡</text>
<polygon points="130,436 202,436 202,304 130,304" fill="#d4ecec" stroke="#444" stroke-width="2"/>
<text x="166" y="366" font-size="12" text-anchor="middle">洗面脱衣室</text>
<text x="166" y="382" font-size="10" text-anchor="middle" fill="#666">2.6㎡</text>
<polygon points="40,436 130,436 130,304 40,304" fill="#d4ecec" stroke="#444" stroke-width="2"/>
<text x="85" y="366" font-size="12" text-anchor="middle">浴室</text>
<text x="85" y="382" font-size="10" text-anchor="middle" fill="#666">3.3㎡</text>
<polygon points="256,634 418,634 418,424 256,424" fill="#cfe3f5" stroke="#444" stroke-width="2"/>
<text x="337" y="525" font-size="12" text-anchor="middle">洋室2 ⊞</text>
<text x="337" y="541" font-size="10" text-anchor="middle" fill="#666">9.4㎡</text>
<polygon points="256,424 322,424 322,304 256,304" fill="#d4ecec" stroke="#444" stroke-width="2"/>
<text x="289" y="360" font-size="12" text-anchor="middle">トイレ</text>
<text x="289" y="376" font-size="10" text-anchor="middle" fill="#666">2.2㎡</text>
<polygon points="322,424 418,424 418,304 322,304" fill="#e5ddee" stroke="#444" stroke-width="2"/>
<text x="370" y="360" font-size="12" text-anchor="middle">収納</text>
<text x="370" y="376" font-size="10" text-anchor="middle" fill="#666">3.2㎡</text>
<polygon points="40,304 418,304 418,64 40,64" fill="#fde9c8" stroke="#444" stroke-width="2"/>
<text x="229" y="180" font-size="12" text-anchor="middle">LDK ⊞</text>
<text x="229" y="196" font-size="10" text-anchor="middle" fill="#666">25.2㎡</text>
<circle cx="229.00000000000003" cy="550" r="6" fill="#c0392b"/>
<circle cx="202" cy="493" r="6" fill="#c0392b"/>
<circle cx="256" cy="487" r="6" fill="#c0392b"/>
<circle cx="202" cy="370" r="6" fill="#c0392b"/>
<circle cx="130" cy="370" r="6" fill="#c0392b"/>
<circle cx="256" cy="364" r="6" fill="#c0392b"/>
<circle cx="370" cy="424" r="6" fill="#c0392b"/>
<circle cx="229.00000000000003" cy="304" r="6" fill="#c0392b"/>
<polygon points="223.00000000000003,648 235.00000000000003,648 229.00000000000003,638" fill="#c0392b"/>
<text x="229.00000000000003" y="662" font-size="12" text-anchor="middle" fill="#c0392b" font-weight="bold">入户</text>
<text x="40" y="696" font-size="10" fill="#888">红点=门（位置由执行器按共享墙段中点计算） ⊞=需外窗</text>
</svg>