<svg xmlns="http://www.w3.org/2000/svg" viewBox="0 0 404 458" font-family="sans-serif">
<rect width="404" height="458" fill="white"/>
<text x="40" y="24" font-size="16" font-weight="bold">1LDK 31.4㎡ マンション（DK8.4帖 + 洋室4.8帖） [参照]  （5.4m × 5.8m）</text>
<polygon points="100,388 208,388 208,304 100,304" fill="#e8e2d4" stroke="#444" stroke-width="2"/>
<text x="154" y="342" font-size="12" text-anchor="middle">玄関</text>
<text x="154" y="358" font-size="10" text-anchor="middle" fill="#666">2.5㎡</text>
<polygon points="208,388 280,388 280,304 208,304" fill="#d4ecec" stroke="#444" stroke-width="2"/>
<text x="244" y="342" font-size="12" text-anchor="middle">トイレ</text>
<text x="244" y="358" font-size="10" text-anchor="middle" fill="#666">1.7㎡</text>
<polygon points="280,388 364,388 364,250 280,250" fill="#d4ecec" stroke="#444" stroke-width="2"/>
<text x="322" y="315" font-size="12" text-anchor="middle">浴室</text>
<text x="322" y="331" font-size="10" text-anchor="middle" fill="#666">3.2㎡</text>
<polygon points="208,304 280,304 280,220 208,220" fill="#d4ecec" stroke="#444" stroke-width="2"/>
<text x="244" y="258" font-size="12" text-anchor="middle">洗面室</text>
<text x="244" y="274" font-size="10" text-anchor="middle" fill="#666">1.7㎡</text>
<polygon points="280,250 364,250 364,220 280,220" fill="#e5ddee" stroke="#444" stroke-width="2"/>
<text x="322" y="231" font-size="12" text-anchor="middle">クローゼット</text>
<text x="322" y="247" font-size="10" text-anchor="middle" fill="#666">0.7㎡</text>
<polygon points="40,388 100,388 100,304 208,304 208,40 40,40" fill="#fde9c8" stroke="#444" stroke-width="2"/>
<text x="124" y="210" font-size="12" text-anchor="middle">DK ⊞</text>
<text x="124" y="226" font-size="10" text-anchor="middle" fill="#666">13.7㎡</text>
<polygon points="208,220 364,220 364,40 208,40" fill="#cfe3f5" stroke="#444" stroke-width="2"/>
<text x="286" y="126" font-size="12" text-anchor="middle">洋室 ⊞</text>
<text x="286" y="142" font-size="10" text-anchor="middle" fill="#666">7.8㎡</text>
<circle cx="154" cy="304" r="6" fill="#c0392b"/>
<circle cx="208" cy="262" r="6" fill="#c0392b"/>
<circle cx="244" cy="304" r="6" fill="#c0392b"/>
<circle cx="280" cy="277" r="6" fill="#c0392b"/>
<circle cx="208" cy="129.99999999999994" r="6" fill="#c0392b"/>
<circle cx="322" cy="220" r="6" fill="#c0392b"/>
<text x="154" y="404" font-size="12" text-anchor="middle" fill="#c0392b" font-weight="bold">▲ 入户</text>
<text x="40" y="450" font-size="10" fill="#888">红点=门（位置由执行器按共享墙段中点计算） ⊞=需外窗</text>
</svg>